<svg xmlns="http://www.w3.org/2000/svg" width="1024" height="1024" viewBox="-51.5 -51.5 1127.0 1127.0">
  <g fill="none" stroke="black" stroke-width="45" stroke-linecap="round" stroke-linejoin="round">
    <path d="M 550.216,398.038 C 550.113,342.063 549.145,333.483 546.061,324.815 C 543.268,320.621 535.596,313.347 510.494,297.474 C 498.247,288.812 485.682,278.249 473.547,265.919 C 463.472,253.378 453.183,236.747 447.559,224.407 C 442.71,209.076 440.349,195.533 439.756,179.303 C 441.367,162.947 445.374,146.452 451.792,130.195 C 458.474,117.609 469.579,101.275 479.896,89.019 C 496.151,73.202 516.71,57.395 537.255,44.735 C 557.906,34.402 582.683,24.552 607.487,16.995 C 636.241,10.682 665.215,6.485 694.072,4.324 C 719.57,4.291 750.102,6.922 778.915,11.401 C 806.673,17.7 832.002,25.591 856.385,35.412 C 877.245,45.985 891.85,54.868 906.638,65.435 C 920.131,76.851 931.248,87.788 942.813,101.145 C 951.147,112.652 958.378,124.901 964.885,139.171 C 969.044,151.793 972.081,166.415 973.103,178.839 C 972.678,191.284 970.477,205.307 967.061,218.217 C 961.807,231.443 956.108,242.436 947.573,255.489 C 938.51,266.812 926.897,278.782 916.37,288.052 C 902.151,298.865 887.763,308.261 871.708,317.342 C 854.549,325.632 837.905,332.376 818.376,338.982 C 801.28,343.749 781.39,348.173 763.054,351.253 C 742.192,353.642 721.421,354.885 702.68,354.986" data-line="nan"  stroke-width="45.0"/>
    <path d="M 821.04,723.564 C 821.083,657.524 822.602,651.709 827.292,645.371 C 849.092,627.678 860.805,613.848 866.407,605.152 C 870.39,596.958 874.059,586.424 876.137,575.57 C 876.687,564.967 875.983,556.636 873.73,546.787 C 871.001,539.291 866.581,530.176 859.919,519.936 C 851.792,510.063 844.164,502.45 832.428,492.812 C 817.922,483.402 804.949,476.798 787.4,470.012 C 770.727,465.384 752.775,461.995 731.177,459.805 C 712.39,459.191 692.325,460.63 676.137,462.966 C 661.359,466.264 644.046,471.76 627.658,478.749 C 613.653,486.496 599.811,496.086 587.834,506.543 C 576.203,519.836 566.955,534.834 561.332,550.378 C 559.409,564.871 561.035,581.275 566.598,598.118 C 575.835,614.375 587.565,628.446 602.24,641.437 C 619.205,652.622 637.564,661.755 659.08,669.353 C 680.664,674.236 703.53,676.73 720.114,676.801 L 750.826,674.105" data-line="nan"  stroke-width="45.0"/>
    <path d="M 702.68,354.986 C 677.782,353.754 653.029,351.291 644.152,352.325 C 638.056,355.422 601.194,383.51 550.077,419.708" data-line="nan"  stroke-width="45.0"/>
    <path d="M 550.216,398.038 L 550.077,419.708" data-line="1.0"  stroke-width="45.0"/>
    <circle cx="309.87269503460374" cy="477.3812913302076" r="160.7912628994684" data-line="3.0"  stroke-width="45.0"/>
    <path d="M 821.04,723.564 L 750.826,674.105" data-line="6.0"  stroke-width="45.0"/>
    <path d="M 569.435,1018.823 L 569.995,884.208" data-line="10.0"  stroke-width="45.0"/>
    <path d="M 569.435,1018.823 L 52.164,1019.199" data-line="11.0"  stroke-width="45.0"/>
    <path d="M 570.6004187793469,884.1452806593975 A 213.22468182274164,213.22468182274164 0 0,0 366.33814774084567,693.0360839549795" data-line="13.0"  stroke-width="45.0"/>
    <path d="M 366.325,693.394 L 241.895,693.596" data-line="14.0"  stroke-width="45.0"/>
    <path d="M 241.89500079582297,693.5960077632174 A 212.91289084753183,212.91289084753183 0 0,0 50.70199880847659,903.6061137599442" data-line="15.0"  stroke-width="45.0"/>
    <path d="M 50.926,903.608 L 52.164,1019.199" data-line="16.0"  stroke-width="45.0"/>
  </g>
</svg>