<svg xmlns="http://www.w3.org/2000/svg" width="1024" height="1024" viewBox="-51.5 -51.5 1127.0 1127.0">
  <g fill="none" stroke="black" stroke-width="45" stroke-linecap="round" stroke-linejoin="round">
    <path d="M 557.81,996.3 C 555.48,989.61 554.2,982.24 554.19,947.49" data-line="nan"  stroke-width="45.0"/>
    <path d="M 554.34,554.32 C 555.35,546.94 557.54,540.11 561.12,533.38 C 565.74,527.45 571.5,522.15 578.45,517.68 Q 585.1,514.89 594.02,512.78" data-line="nan"  stroke-width="45.0"/>
    <path d="M 977.35,512.15 C 986.52,513.18 994.38,515.52 1002.16,519.44 C 1009.74,525.16 1015.23,531.02 1019.67,538.19 Q 1022.54,545.53 1023.84,552.91" data-line="nan"  stroke-width="45.0"/>
    <path d="M 1023.85,981.91 C 1022.36,990.55 1019.44,997.9 1015.46,1004.15 C 1009.45,1010.52 1002.05,1015.91 993.51,1020.13 Q 987.25,1022.13 977.99,1023.55" data-line="nan"  stroke-width="45.0"/>
    <path d="M 598.51,1023.71 C 585.42,1020.59 573.29,1014.25 564.38,1006.37 Q 559.15,999.54 557.81,996.3" data-line="nan"  stroke-width="45.0"/>
    <path d="M 150.87,241.21 C 138.06,241.43 125.37,243.15 112.66,246.93 C 104.16,250.69 91.52,258.2 83.16,264.64 C 74.84,272.42 67.3,280.9 55.6,297.98 C 47.33,314.85 41.88,331.9 30.27,381.64 L 11.15,419.96" data-line="nan"  stroke-width="45.0"/>
    <path d="M 0.05,775.67 C 0.67,792.58 2.1,800.96 4.72,809.54 C 11.65,822.59 22.72,834.87 35.53,843.52 C 48.42,848.36 61.23,850.27 91.08,850.46" data-line="nan"  stroke-width="45.0"/>
    <path d="M 438.69,105.73 C 427.48,104.18 416.49,100.81 408.34,97.16 C 399.63,91.96 387.51,82.05 333.75,28.56 C 321.14,17.48 312.71,11.52 301.92,5.69 Q 292.19,2.29 280.66,0.23" data-line="nan"  stroke-width="45.0"/>
    <path d="M 124.95,0.01 L 71.45,0.01" data-line="nan"  stroke-width="45.0"/>
    <path d="M 71.45,0.01 C 53.65,0.97 39.49,4.63 31.01,8.79 C 24.29,13.26 13.66,24.05 5.43,37.77 C 1.63,50.37 0.1,62.82 0.0,88.45" data-line="nan"  stroke-width="45.0"/>
    <path d="M 921.58,241.16 L 150.87,241.21" data-line="0.0"  stroke-width="45.0"/>
    <path d="M 11.15,419.96 L 0.05,775.67" data-line="1.0"  stroke-width="45.0"/>
    <path d="M 921.57,448.09 L 921.57,186.08" data-line="2.0"  stroke-width="45.0"/>
    <path d="M 0.18,385.05 L 11.15,419.96" data-line="5.0"  stroke-width="45.0"/>
    <path d="M 654.97,737.55 L 853.11,737.21" data-line="6.0"  stroke-width="45.0"/>
    <path d="M 655.13,838.18 L 757.43,838.11" data-line="7.0"  stroke-width="45.0"/>
    <path d="M 654.01,627.87 L 891.54,627.71" data-line="8.0"  stroke-width="45.0"/>
    <path d="M 554.19,947.49 L 554.34,554.32" data-line="11.0"  stroke-width="45.0"/>
    <path d="M 91.08,850.46 L 490.18,850.48" data-line="12.0"  stroke-width="45.0"/>
    <path d="M 921.8664549724994,186.0942291188333 A 77.1646270552496,77.1646270552496 0 0,0 825.7011474876498,107.62864441469019" data-line="13.0"  stroke-width="45.0"/>
    <path d="M 594.02,512.78 L 977.35,512.15" data-line="13.0"  stroke-width="45.0"/>
    <path d="M 1023.84,552.91 L 1023.85,981.91" data-line="15.0"  stroke-width="45.0"/>
    <path d="M 0.0,88.45 L 0.18,385.05" data-line="16.0"  stroke-width="45.0"/>
    <path d="M 977.99,1023.55 L 598.51,1023.71" data-line="17.0"  stroke-width="45.0"/>
    <path d="M 825.27,105.94 L 438.69,105.73" data-line="21.0"  stroke-width="45.0"/>
    <path d="M 280.66,0.23 L 124.95,0.01" data-line="23.0"  stroke-width="45.0"/>
  </g>
</svg>