<svg xmlns="http://www.w3.org/2000/svg" width="1024" height="1024" viewBox="-51.5 -51.5 1127.0 1127.0">
  <g fill="none" stroke="black" stroke-width="45" stroke-linecap="round" stroke-linejoin="round">
    <path d="M 920.67,488.24 C 921.55,454.02 919.72,420.0 915.5,387.97 C 907.52,348.59 898.26,315.52 887.24,284.91 C 873.95,255.71 857.54,225.1 839.78,197.22 C 821.54,172.75 800.49,148.62 771.5,119.02 C 737.17,91.76 708.69,71.33 688.27,58.96 C 656.61,43.14 618.88,27.68 589.16,17.84 C 555.77,9.75 520.92,4.01 484.46,0.71 C 446.59,0.13 416.95,2.15 375.1,7.9 C 343.24,14.59 309.38,24.74 274.73,37.8 C 245.2,51.98 217.24,68.25 192.71,84.9 C 161.03,109.49 134.77,133.24 111.03,159.01 C 84.19,193.6 64.92,223.08 49.54,251.08 C 33.23,287.42 24.47,311.16 16.22,339.46 C 8.22,375.64 2.82,411.26 0.46,441.49 C 0.33,481.54 2.94,513.66 6.97,543.34 C 13.51,573.06 26.03,614.72 39.46,649.29 C 53.73,678.12 73.09,710.68 93.8,740.16 C 115.19,765.97 138.82,790.52 172.65,820.59 C 197.06,838.86 222.56,855.29 253.36,872.52 C 279.4,884.35 316.33,897.71 350.98,907.46 C 384.37,914.33 419.61,918.86 451.77,920.74 L 486.68,920.0" data-line="nan"  stroke-width="45.0"/>
    <path d="M 446.92,462.77 C 453.92,466.09 461.21,467.35 468.06,466.39 C 473.8,464.02 482.12,457.51 512.07,428.37" data-line="nan"  stroke-width="45.0"/>
    <path d="M 460.48,101.63 L 460.62,168.47" data-line="3.0"  stroke-width="45.0"/>
    <path d="M 101.03,460.44 L 164.32,460.44" data-line="5.0"  stroke-width="45.0"/>
    <path d="M 799.01,648.41 L 917.95,767.76" data-line="6.0"  stroke-width="45.0"/>
    <path d="M 609.25,767.87 L 917.95,767.76" data-line="7.0"  stroke-width="45.0"/>
    <path d="M 265.98,340.51 L 446.92,462.77" data-line="7.0"  stroke-width="45.0"/>
    <path d="M 801.48,885.01 L 917.95,767.76" data-line="8.0"  stroke-width="45.0"/>
    <circle cx="767.8630040797926" cy="768.6147779980295" r="255.51893675502765" data-line="9.0"  stroke-width="45.0"/>
    <path d="M 512.07,428.37 L 685.55,259.21" data-line="9.0"  stroke-width="45.0"/>
  </g>
</svg>