<svg xmlns="http://www.w3.org/2000/svg" width="1024" height="1024" viewBox="-51.5 -51.5 1127.0 1127.0">
  <g fill="none" stroke="black" stroke-width="45" stroke-linecap="round" stroke-linejoin="round">
    <path d="M 4.007,910.887 C 5.144,933.668 8.413,947.42 11.998,956.731 C 16.572,965.717 22.617,974.834 30.566,984.241 C 39.569,992.61 48.783,999.285 57.881,1004.383 C 67.028,1008.238 76.311,1010.932 94.884,1013.184 L 131.794,1013.31" data-line="nan"  stroke-width="45.0"/>
    <path d="M 902.795,1013.478 C 930.471,1013.643 944.163,1011.886 953.342,1009.511 C 967.592,1003.857 976.935,998.59 986.639,991.484 C 996.033,982.683 1003.808,973.28 1009.698,963.883 C 1014.09,954.42 1017.155,944.928 1018.983,935.518 Q 1019.761,926.264 1019.925,889.342" data-line="nan"  stroke-width="45.0"/>
    <path d="M 1019.959,108.791 C 1019.718,97.058 1018.098,85.817 1015.644,76.744 C 1010.735,64.291 1004.585,53.182 998.588,44.935 C 991.242,36.685 984.353,30.437 975.989,24.366 C 966.363,18.866 948.998,12.538 933.298,10.376 L 896.323,10.198" data-line="nan"  stroke-width="45.0"/>
    <path d="M 99.793,10.311 C 81.032,11.522 64.209,15.917 48.015,23.728 C 34.559,33.526 22.023,46.745 12.115,62.648 Q 6.555,78.004 4.13,94.0" data-line="nan"  stroke-width="45.0"/>
    <path d="M 230.552,114.314 L 250.497,114.409" data-line="0.0"  stroke-width="45.0"/>
    <path d="M 341.149,114.173 L 362.572,114.349" data-line="1.0"  stroke-width="45.0"/>
    <path d="M 119.543,114.302 L 140.967,114.102" data-line="2.0"  stroke-width="45.0"/>
    <path d="M 1019.826,216.079 L 4.058,216.031" data-line="3.0"  stroke-width="45.0"/>
    <path d="M 4.048,225.647 L 4.007,910.887" data-line="4.0"  stroke-width="45.0"/>
    <path d="M 427.254,800.262 L 609.49,368.266" data-line="6.0"  stroke-width="45.0"/>
    <path d="M 191.617,578.678 L 335.867,435.882" data-line="7.0"  stroke-width="45.0"/>
    <path d="M 191.617,578.678 L 331.728,717.903" data-line="8.0"  stroke-width="45.0"/>
    <path d="M 686.723,434.474 L 832.347,579.822" data-line="12.0"  stroke-width="45.0"/>
    <path d="M 692.829,718.26 L 832.347,579.822" data-line="13.0"  stroke-width="45.0"/>
    <path d="M 131.794,1013.31 L 902.795,1013.478" data-line="15.0"  stroke-width="45.0"/>
    <path d="M 1019.925,889.342 L 1019.959,108.791" data-line="17.0"  stroke-width="45.0"/>
    <path d="M 4.13,94.0 L 4.048,225.647" data-line="17.0"  stroke-width="45.0"/>
    <path d="M 896.323,10.198 L 99.793,10.311" data-line="19.0"  stroke-width="45.0"/>
  </g>
</svg>