<svg xmlns="http://www.w3.org/2000/svg" width="1024" height="1024" viewBox="-51.5 -51.5 1127.0 1127.0">
  <g fill="none" stroke="black" stroke-width="45" stroke-linecap="round" stroke-linejoin="round">
    <path d="M 736.867,321.054 C 742.784,316.896 750.953,314.471 796.449,314.06" data-line="nan"  stroke-width="45.0"/>
    <path d="M 931.99,676.205 C 973.485,675.556 982.814,673.384 992.961,668.824 C 1003.211,661.012 1008.626,654.91 1012.014,649.734 Q 1017.58,637.294 1019.716,622.285" data-line="nan"  stroke-width="45.0"/>
    <path d="M 1019.99,535.282 C 1019.991,501.784 1019.28,493.831 1014.635,480.044 C 1007.883,469.749 1002.292,464.038 996.493,459.565 C 981.782,452.816 970.48,450.709 948.821,450.472" data-line="nan"  stroke-width="45.0"/>
    <path d="M 526.612,255.276 C 527.958,270.767 529.462,276.427 532.872,284.394 C 536.571,290.805 541.086,296.484 551.59,305.296 C 562.211,310.582 574.455,313.465 623.708,314.457" data-line="nan"  stroke-width="45.0"/>
    <path d="M 729.895,450.715 C 720.786,451.657 711.638,454.452 701.729,459.55 C 695.597,464.263 689.738,470.438 683.56,479.833 Q 680.321,488.089 678.616,497.041" data-line="nan"  stroke-width="45.0"/>
    <path d="M 814.435,676.4 C 820.658,677.105 824.934,678.636 832.847,684.125 L 931.896,780.198" data-line="nan"  stroke-width="45.0"/>
    <path d="M 50.107,1017.475 C 42.17,1017.203 34.305,1015.856 26.344,1012.47 C 18.399,1006.697 11.808,999.024 7.433,990.9 C 5.075,983.122 4.144,975.298 4.077,880.386 C 4.879,856.776 6.343,841.099 9.842,821.489 C 15.18,802.008 22.695,782.137 32.363,762.504 C 41.886,746.899 50.554,734.793 60.165,723.147 C 71.128,711.629 82.669,701.012 94.422,691.647 C 106.104,683.574 121.726,674.463 137.505,666.95 C 149.378,662.308 164.984,657.402 180.633,653.789 Q 211.825,649.997 250.433,649.668" data-line="nan"  stroke-width="45.0"/>
    <path d="M 404.665,649.694 C 432.278,650.845 448.038,653.008 463.909,656.278 C 491.485,664.92 507.196,671.721 519.141,677.912 C 542.95,693.389 554.861,702.964 566.917,714.178 C 584.456,733.998 600.658,757.676 612.907,781.487 C 621.691,805.19 627.628,828.879 631.28,856.66 C 631.902,880.386 631.411,979.302 628.127,991.737 Q 624.404,998.93 619.007,1006.94" data-line="nan"  stroke-width="45.0"/>
    <path d="M 623.723,429.1 L 623.708,314.457" data-line="1.0"  stroke-width="45.0"/>
    <circle cx="317.65337761725397" cy="401.0645065101559" r="185.3936182004475" data-line="5.0"  stroke-width="45.0"/>
    <path d="M 931.99,676.205 L 931.896,780.198" data-line="8.0"  stroke-width="45.0"/>
    <path d="M 623.723,429.1 L 736.867,321.054" data-line="13.0"  stroke-width="45.0"/>
    <path d="M 613.739,1010.017 L 50.107,1017.475" data-line="13.0"  stroke-width="45.0"/>
    <path d="M 613.739,1010.017 L 619.007,1006.94" data-line="14.0"  stroke-width="45.0"/>
    <path d="M 796.449,314.06 L 960.726,314.044" data-line="15.0"  stroke-width="45.0"/>
    <path d="M 960.7209399318591,314.12227115159646 A 56.28843808517877,56.28843808517877 0 0,0 1018.2797176396944,241.8197270901367" data-line="15.0"  stroke-width="45.0"/>
    <path d="M 1019.957,241.318 L 1019.982,65.451" data-line="16.0"  stroke-width="45.0"/>
    <path d="M 1019.716,622.285 L 1019.99,535.282" data-line="17.0"  stroke-width="45.0"/>
    <path d="M 1020.2390816267765,65.46049090951252 A 57.54781205768611,57.54781205768611 0 0,0 945.9469541859357,8.291367047774507" data-line="17.0"  stroke-width="45.0"/>
    <path d="M 945.409,6.527 L 587.488,6.504" data-line="18.0"  stroke-width="45.0"/>
    <path d="M 587.4789998400624,6.603033166052526 A 56.44404120970133,56.44404120970133 0 0,0 528.2098622196803,78.70772666458238" data-line="19.0"  stroke-width="45.0"/>
    <path d="M 526.614,79.176 L 526.612,255.276" data-line="20.0"  stroke-width="45.0"/>
    <path d="M 948.821,450.472 L 729.895,450.715" data-line="20.0"  stroke-width="45.0"/>
    <path d="M 678.616,497.041 L 678.419,617.788" data-line="22.0"  stroke-width="45.0"/>
    <path d="M 678.1601011773984,617.7778777371682 A 56.8229477325889,56.8229477325889 0 0,0 750.6390937553688,674.6089387455664" data-line="23.0"  stroke-width="45.0"/>
    <path d="M 751.087,676.167 L 814.435,676.4" data-line="23.0"  stroke-width="45.0"/>
    <path d="M 250.433,649.668 L 404.665,649.694" data-line="26.0"  stroke-width="45.0"/>
  </g>
</svg>