<svg xmlns="http://www.w3.org/2000/svg" width="1024" height="1024" viewBox="-51.5 -51.5 1127.0 1127.0">
  <g fill="none" stroke="black" stroke-width="45" stroke-linecap="round" stroke-linejoin="round">
    <path d="M 76.04,385.23 C 51.8,391.67 38.34,396.2 26.04,403.01 C 15.46,412.74 7.99,423.95 2.31,438.67 C 0.54,449.58 0.02,475.45 1.54,512.69 C 3.26,527.37 7.48,542.13 15.61,557.33 C 21.42,564.77 28.07,571.37 42.86,582.2 Q 55.26,588.91 78.26,596.64" data-line="nan"  stroke-width="45.0"/>
    <path d="M 824.7,494.14 C 825.08,456.91 824.05,445.79 819.77,430.76 C 813.74,419.32 804.66,408.35 793.63,399.86 Q 782.36,394.88 749.06,384.55" data-line="nan"  stroke-width="45.0"/>
    <path d="M 748.69,329.07 C 721.04,312.61 698.15,296.14 672.38,275.37 C 648.11,253.16 627.54,231.48 607.12,206.64 Q 591.18,184.2 575.51,158.19" data-line="nan"  stroke-width="45.0"/>
    <path d="M 611.55,1023.23 C 607.22,1021.46 603.96,1018.85 601.05,1015.16 C 599.34,1010.08 600.03,1001.14 605.29,983.87" data-line="nan"  stroke-width="45.0"/>
    <path d="M 646.88,850.85 C 647.46,842.26 645.91,837.12 643.42,832.6 Q 637.07,825.57 616.77,809.27" data-line="nan"  stroke-width="45.0"/>
    <path d="M 517.21,731.12 C 514.01,727.43 512.11,721.83 512.81,714.81 C 515.19,710.32 518.61,707.1 523.09,704.95 Q 527.19,704.17 538.35,703.96" data-line="nan"  stroke-width="45.0"/>
    <path d="M 676.97,704.05 C 682.65,702.96 687.82,700.86 694.62,695.06 Q 698.73,688.33 706.45,668.59" data-line="nan"  stroke-width="45.0"/>
    <path d="M 754.15,543.1 C 758.42,536.87 763.34,533.8 767.45,533.04 C 773.17,534.52 777.53,537.62 780.23,541.21 L 789.25,564.19" data-line="nan"  stroke-width="45.0"/>
    <path d="M 826.81,663.47 C 837.03,686.85 842.93,695.34 850.66,700.97 Q 856.86,702.93 863.59,703.9" data-line="nan"  stroke-width="45.0"/>
    <path d="M 1009.8,704.36 C 1014.79,705.85 1020.13,710.08 1023.12,715.27 C 1023.86,721.53 1022.19,726.55 1020.25,729.4 L 1005.22,741.54" data-line="nan"  stroke-width="45.0"/>
    <path d="M 900.5,823.66 C 892.05,832.4 888.52,841.18 888.55,848.96 L 893.64,866.26" data-line="nan"  stroke-width="45.0"/>
    <path d="M 935.3,1003.36 C 935.91,1008.83 933.97,1015.47 930.58,1019.43 C 925.16,1022.47 919.86,1023.2 914.66,1022.11 L 903.35,1015.16" data-line="nan"  stroke-width="45.0"/>
    <path d="M 792.75,937.38 C 780.39,929.41 776.19,927.81 768.99,926.48 C 763.55,926.44 757.96,927.72 748.84,933.02" data-line="nan"  stroke-width="45.0"/>
    <path d="M 645.57,1005.5 C 625.05,1020.18 619.94,1022.61 614.2,1024.0" data-line="nan"  stroke-width="45.0"/>
    <path d="M 745.31,263.29 C 740.81,237.23 732.77,207.5 723.16,181.38 C 710.73,155.59 694.62,129.57 677.33,107.21 C 659.56,88.36 637.18,68.81 614.62,52.79 C 592.4,39.99 562.33,26.36 536.42,17.32 C 506.78,9.66 476.9,4.43 443.55,1.1 C 410.13,0.0 377.81,1.12 344.61,4.57 C 314.83,9.81 285.12,17.47 255.62,28.04 C 229.34,40.52 207.45,53.38 185.19,69.3 C 163.38,88.38 146.15,106.76 129.23,128.61 C 115.08,151.23 100.69,180.91 90.99,206.88 Q 83.15,236.47 78.95,262.34" data-line="nan"  stroke-width="45.0"/>
    <path d="M 78.95,262.34 Q 75.95,295.69 76.01,406.76" data-line="nan"  stroke-width="45.0"/>
    <path d="M 76.57,574.88 C 78.26,596.64 81.3,618.11 85.3,639.56 C 89.81,658.31 95.11,676.06 101.21,692.9 C 109.38,711.52 119.34,731.37 130.25,750.28 C 140.02,765.36 153.22,783.41 166.95,800.13 C 179.41,813.68 196.5,830.41 210.82,842.98 C 227.62,856.25 243.56,867.53 261.14,878.62 C 276.98,887.34 296.37,896.59 312.79,903.13 C 332.7,909.45 353.6,915.14 368.93,918.15 C 387.5,920.5 406.12,921.54 424.7,921.29 C 439.66,920.12 459.18,917.41 476.8,913.77 Q 493.14,909.37 512.0,903.03" data-line="nan"  stroke-width="45.0"/>
    <path d="M 749.06,470.56 L 745.31,263.29" data-line="1.0"  stroke-width="45.0"/>
    <path d="M 575.6120953819923,158.2938216342061 A 405.3268583424491,405.3268583424491 0 0,1 381.59792820249237,264.4589171566912" data-line="5.0"  stroke-width="45.0"/>
    <path d="M 573.02,426.97 L 573.07,496.79" data-line="11.0"  stroke-width="45.0"/>
    <path d="M 252.54,496.79 L 252.56,426.97" data-line="12.0"  stroke-width="45.0"/>
    <path d="M 605.29,983.87 L 646.88,850.85" data-line="12.0"  stroke-width="45.0"/>
    <path d="M 327.21,700.32 L 450.46,700.34" data-line="13.0"  stroke-width="45.0"/>
    <path d="M 616.77,809.27 L 517.21,731.12" data-line="14.0"  stroke-width="45.0"/>
    <path d="M 611.55,1023.23 L 614.2,1024.0" data-line="15.0"  stroke-width="45.0"/>
    <path d="M 538.35,703.96 L 676.97,704.05" data-line="16.0"  stroke-width="45.0"/>
    <path d="M 381.71,264.95 L 191.83,294.13" data-line="18.0"  stroke-width="45.0"/>
    <path d="M 706.45,668.59 L 754.15,543.1" data-line="18.0"  stroke-width="45.0"/>
    <path d="M 191.72006744115308,293.4547304062337 A 179.1441724400544,179.1441724400544 0 0,0 77.21249907462658,362.75474974271833" data-line="19.0"  stroke-width="45.0"/>
    <path d="M 789.25,564.19 L 826.81,663.47" data-line="20.0"  stroke-width="45.0"/>
    <path d="M 863.59,703.9 L 1009.8,704.36" data-line="22.0"  stroke-width="45.0"/>
    <path d="M 1005.22,741.54 L 900.5,823.66" data-line="24.0"  stroke-width="45.0"/>
    <path d="M 893.64,866.26 L 935.3,1003.36" data-line="26.0"  stroke-width="45.0"/>
    <path d="M 903.35,1015.16 L 792.75,937.38" data-line="28.0"  stroke-width="45.0"/>
    <path d="M 748.84,933.02 L 645.57,1005.5" data-line="30.0"  stroke-width="45.0"/>
    <path d="M 76.01,406.76 L 76.57,574.88" data-line="34.0"  stroke-width="45.0"/>
  </g>
</svg>