<svg xmlns="http://www.w3.org/2000/svg" width="1024" height="1024" viewBox="-51.5 -51.5 1127.0 1127.0">
  <g fill="none" stroke="black" stroke-width="45" stroke-linecap="round" stroke-linejoin="round">
    <path d="M 63.788,547.397 C 54.272,546.319 41.152,543.23 6.04,529.065" data-line="nan"  stroke-width="45.0"/>
    <path d="M 1019.712,534.03 C 977.031,544.813 961.226,547.216 821.373,547.564" data-line="nan"  stroke-width="45.0"/>
    <path d="M 713.43,226.435 C 712.55,160.579 710.755,141.25 707.339,127.097 C 703.29,115.973 696.407,101.919 688.638,89.853 C 675.601,74.297 665.735,65.23 650.695,54.277 C 637.543,47.06 621.334,40.606 603.993,36.079 Q 588.742,33.994 566.39,33.022" data-line="nan"  stroke-width="45.0"/>
    <path d="M 565.002,657.616 C 563.715,670.505 561.132,678.347 554.955,687.292 C 546.137,694.653 538.005,698.7 528.437,701.136 C 519.79,701.78 497.387,701.293 488.733,699.258 C 479.58,695.002 474.043,690.739 466.814,682.363 C 463.326,675.601 460.919,666.894 460.047,659.534 L 459.955,639.729" data-line="nan"  stroke-width="45.0"/>
    <path d="M 4.026,329.902 C 4.878,306.888 6.762,296.974 10.305,286.04 C 15.55,274.792 22.809,263.749 32.182,253.26 C 37.338,248.633 54.101,237.375 65.079,232.364 C 76.109,229.034 92.596,226.721 131.696,226.43" data-line="nan"  stroke-width="45.0"/>
    <path d="M 924.276,226.435 C 935.489,226.683 946.722,228.166 956.211,230.674 C 967.526,235.206 977.519,240.77 986.234,247.131 C 994.412,254.706 1001.782,263.398 1011.435,279.384 C 1014.95,287.836 1017.681,297.542 1019.723,316.492 L 1019.984,355.635" data-line="nan"  stroke-width="45.0"/>
    <path d="M 1019.912,894.454 C 1019.642,905.464 1018.323,914.608 1014.214,928.763 C 1010.605,937.29 1004.199,948.556 999.838,954.522 C 992.403,962.829 984.163,970.234 966.931,981.222 C 957.878,985.154 947.227,988.317 929.919,990.654 L 896.316,990.868" data-line="nan"  stroke-width="45.0"/>
    <path d="M 105.217,991.022 C 90.972,990.637 79.757,989.169 67.499,985.718 C 58.378,982.127 49.014,977.174 40.674,971.369 C 32.943,964.693 25.312,956.53 18.936,947.874 C 13.365,938.031 10.033,930.342 6.203,917.841 Q 4.176,903.562 4.005,867.136" data-line="nan"  stroke-width="45.0"/>
    <path d="M 436.715,33.984 C 419.998,36.521 406.958,39.885 391.203,45.879 C 376.842,53.284 363.419,62.404 352.464,71.793 C 342.774,82.086 332.519,95.643 326.016,106.818 C 321.985,115.655 317.109,129.403 314.127,142.113 Q 311.637,170.072 311.488,226.416" data-line="nan"  stroke-width="45.0"/>
    <path d="M 565.052,491.158 L 565.002,657.616" data-line="1.0"  stroke-width="45.0"/>
    <path d="M 6.04,529.065 L 4.026,329.902" data-line="3.0"  stroke-width="45.0"/>
    <path d="M 565.052,491.158 L 461.277,491.483" data-line="4.0"  stroke-width="45.0"/>
    <path d="M 459.928,532.912 L 461.277,491.483" data-line="5.0"  stroke-width="45.0"/>
    <path d="M 459.955,639.729 L 459.928,532.912" data-line="8.0"  stroke-width="45.0"/>
    <path d="M 459.87,547.552 L 63.788,547.397" data-line="10.0"  stroke-width="45.0"/>
    <path d="M 131.696,226.43 L 924.276,226.435" data-line="10.0"  stroke-width="45.0"/>
    <path d="M 1019.984,355.635 L 1019.912,894.454" data-line="12.0"  stroke-width="45.0"/>
    <path d="M 821.373,547.564 L 565.083,547.501" data-line="13.0"  stroke-width="45.0"/>
    <path d="M 896.316,990.868 L 105.217,991.022" data-line="14.0"  stroke-width="45.0"/>
    <path d="M 4.005,867.136 L 4.016,528.248" data-line="16.0"  stroke-width="45.0"/>
    <path d="M 566.39,33.022 L 436.715,33.984" data-line="17.0"  stroke-width="45.0"/>
  </g>
</svg>