<svg xmlns="http://www.w3.org/2000/svg" width="1024" height="1024" viewBox="-51.5 -51.5 1127.0 1127.0">
  <g fill="none" stroke="black" stroke-width="45" stroke-linecap="round" stroke-linejoin="round">
    <path d="M 940.372,746.635 C 938.039,720.548 933.363,698.76 928.465,685.732 C 924.052,677.037 912.083,659.361 895.754,642.023 C 877.905,628.039 860.087,618.066 821.156,600.114" data-line="nan"  stroke-width="45.0"/>
    <path d="M 314.522,306.684 C 317.287,328.13 321.079,345.428 328.074,367.159 C 335.591,384.492 345.164,401.781 353.92,414.829 C 368.137,432.33 380.58,444.869 393.371,455.698 C 410.57,467.694 428.091,477.334 445.425,484.707 C 462.859,490.186 484.452,494.516 501.788,496.126 C 523.441,495.953 545.072,493.258 562.497,489.244 C 579.876,483.477 597.321,475.735 614.984,465.6 C 628.157,456.385 645.46,441.59 657.345,429.259 C 667.932,416.299 679.842,398.62 689.323,380.948 C 698.19,359.304 703.375,341.773 707.683,319.996 Q 709.475,302.512 710.059,280.853" data-line="nan"  stroke-width="45.0"/>
    <path d="M 708.57,163.586 C 706.542,150.51 703.491,137.458 699.318,124.492 C 693.928,111.269 681.854,89.374 665.581,68.292 C 653.816,56.395 645.036,48.798 622.934,33.379 C 610.058,26.318 596.862,20.313 570.909,11.555 C 558.047,8.546 540.723,5.722 510.444,4.0 C 481.542,6.019 464.295,9.022 451.34,12.226 C 425.793,21.147 412.511,27.34 399.61,34.534 Q 378.063,49.791 355.795,70.86" data-line="nan"  stroke-width="45.0"/>
    <path d="M 530.963,667.902 L 492.997,668.617" data-line="0.0"  stroke-width="45.0"/>
    <path d="M 565.899,830.43 L 530.963,667.902" data-line="1.0"  stroke-width="45.0"/>
    <path d="M 655.802,525.292 L 512.424,1013.446" data-line="2.0"  stroke-width="45.0"/>
    <path d="M 512.424,1013.446 L 367.709,522.248" data-line="3.0"  stroke-width="45.0"/>
    <path d="M 492.997,668.617 L 457.32,827.61" data-line="4.0"  stroke-width="45.0"/>
    <path d="M 555.127,587.984 L 468.293,589.911" data-line="5.0"  stroke-width="45.0"/>
    <path d="M 555.127,587.984 L 530.963,667.902" data-line="6.0"  stroke-width="45.0"/>
    <path d="M 492.997,668.617 L 474.239,608.724" data-line="7.0"  stroke-width="45.0"/>
    <path d="M 474.239,608.724 L 468.293,589.911" data-line="8.0"  stroke-width="45.0"/>
    <path d="M 941.73,1019.24 L 940.372,746.635" data-line="9.0"  stroke-width="45.0"/>
    <path d="M 941.73,1019.24 L 83.043,1018.927" data-line="10.0"  stroke-width="45.0"/>
    <path d="M 367.709,522.248 L 160.182,620.507" data-line="11.0"  stroke-width="45.0"/>
    <path d="M 351.4287510929395,76.59627449077811 A 172.93666502328034,172.93666502328034 0 0,0 314.383583894461,176.7447230286451" data-line="30.0"  stroke-width="45.0"/>
    <path d="M 351.417,76.587 L 355.795,70.86" data-line="31.0"  stroke-width="45.0"/>
    <path d="M 821.156,600.114 L 655.802,525.292" data-line="33.0"  stroke-width="45.0"/>
    <path d="M 160.25950779471847,620.6698295111962 A 132.06251188436372,132.06251188436372 0 0,0 85.40936549983934,728.9928950346268" data-line="34.0"  stroke-width="45.0"/>
    <path d="M 85.495,729.0 L 83.043,1018.927" data-line="35.0"  stroke-width="45.0"/>
    <path d="M 314.341,176.743 L 314.522,306.684" data-line="36.0"  stroke-width="45.0"/>
    <path d="M 710.059,280.853 L 708.57,163.586" data-line="38.0"  stroke-width="45.0"/>
  </g>
</svg>