<svg xmlns="http://www.w3.org/2000/svg" width="1024" height="1024" viewBox="-51.5 -51.5 1127.0 1127.0">
  <g fill="none" stroke="black" stroke-width="45" stroke-linecap="round" stroke-linejoin="round">
    <path d="M 945.228,767.231 C 944.745,751.391 943.277,739.597 937.182,715.867 C 932.466,703.945 926.637,692.178 919.341,680.347 C 913.27,672.355 895.175,653.746 879.275,641.642 Q 863.369,633.168 823.794,616.161" data-line="nan"  stroke-width="45.0"/>
    <path d="M 706.298,143.882 C 702.299,129.615 695.879,113.69 687.843,98.448 C 678.882,84.567 667.135,69.258 656.476,57.538 C 642.719,45.073 630.905,36.681 614.825,27.772 C 595.609,19.029 579.336,13.221 561.509,8.509 C 544.325,5.69 523.276,4.168 504.076,4.149 C 482.588,5.487 468.116,7.447 453.23,10.827 C 435.676,16.511 417.506,23.969 403.563,30.945 C 388.039,40.358 375.943,49.514 364.662,59.805 C 353.809,71.563 344.615,83.401 336.965,95.18 C 328.416,111.773 323.463,124.399 319.0,140.544 Q 315.942,157.686 314.649,173.338" data-line="nan"  stroke-width="45.0"/>
    <path d="M 544.357,753.106 L 483.499,753.742" data-line="0.0"  stroke-width="45.0"/>
    <path d="M 590.869,1019.753 L 544.896,742.446" data-line="1.0"  stroke-width="45.0"/>
    <path d="M 945.412,1019.802 L 78.645,1019.786" data-line="2.0"  stroke-width="45.0"/>
    <path d="M 483.499,753.742 L 433.554,1019.924" data-line="3.0"  stroke-width="45.0"/>
    <path d="M 624.603,735.59 L 386.106,540.932" data-line="4.0"  stroke-width="45.0"/>
    <path d="M 544.896,742.446 L 561.123,683.384" data-line="5.0"  stroke-width="45.0"/>
    <path d="M 483.499,753.742 L 461.767,682.775" data-line="6.0"  stroke-width="45.0"/>
    <path d="M 638.448,542.595 L 402.88,734.577" data-line="7.0"  stroke-width="45.0"/>
    <path d="M 945.412,1019.802 L 945.228,767.231" data-line="8.0"  stroke-width="45.0"/>
    <path d="M 682.714,558.388 L 624.603,735.59" data-line="9.0"  stroke-width="45.0"/>
    <path d="M 386.106,540.932 L 177.632,625.813" data-line="10.0"  stroke-width="45.0"/>
    <path d="M 402.88,734.577 L 342.562,558.254" data-line="11.0"  stroke-width="45.0"/>
    <path d="M 411.5923924760201,472.5700103833458 A 197.49484694721372,197.49484694721372 0 0,0 700.6317003333824,359.4580769377686" data-line="16.0"  stroke-width="45.0"/>
    <path d="M 638.448,542.595 L 635.089,457.452" data-line="17.0"  stroke-width="45.0"/>
    <path d="M 390.794,458.821 L 386.106,540.932" data-line="18.0"  stroke-width="45.0"/>
    <path d="M 823.794,616.161 L 638.448,542.595" data-line="20.0"  stroke-width="45.0"/>
    <path d="M 177.79769287942165,626.3147336970952 A 143.55796767765997,143.55796767765997 0 0,0 79.33976877485841,767.5017022112463" data-line="21.0"  stroke-width="45.0"/>
    <path d="M 78.948,767.515 L 78.645,1019.786" data-line="22.0"  stroke-width="45.0"/>
    <path d="M 701.038,359.581 C 719.2419221336762,280.5244483335295 711.8681038493347,217.25616253066622 706.298,143.882" data-line="23.0"  stroke-width="45.0"/>
    <path d="M 314.649,173.338 L 317.921,340.443" data-line="25.0"  stroke-width="45.0"/>
    <path d="M 318.0649728812285,340.4118540716107 A 206.5801054098884,206.5801054098884 0 0,0 411.5703353684177,472.58426829638506" data-line="26.0"  stroke-width="45.0"/>
  </g>
</svg>