<svg xmlns="http://www.w3.org/2000/svg" width="1024" height="1024" viewBox="-51.5 -51.5 1127.0 1127.0">
  <g fill="none" stroke="black" stroke-width="45" stroke-linecap="round" stroke-linejoin="round">
    <path d="M 557.81,996.3 C 555.48,989.61 554.2,982.24 554.19,947.49" data-line="nan"  stroke-width="45.0"/>
    <path d="M 554.34,554.32 C 555.35,546.94 557.54,540.11 561.12,533.38 C 565.74,527.45 571.5,522.15 578.45,517.68 Q 585.1,514.89 594.02,512.78" data-line="nan"  stroke-width="45.0"/>
    <path d="M 977.35,512.15 C 986.52,513.18 994.38,515.52 1002.16,519.44 C 1009.74,525.16 1015.23,531.02 1019.67,538.19 Q 1022.54,545.53 1023.84,552.91" data-line="nan"  stroke-width="45.0"/>
    <path d="M 1023.85,981.91 C 1022.36,990.55 1019.44,997.9 1015.46,1004.15 C 1009.45,1010.52 1002.05,1015.91 993.51,1020.13 Q 987.25,1022.13 977.99,1023.55" data-line="nan"  stroke-width="45.0"/>
    <path d="M 598.51,1023.71 C 585.42,1020.59 575.31,1015.59 566.96,1009.08 L 559.15,999.54" data-line="nan"  stroke-width="45.0"/>
    <path d="M 430.12,7.01 C 445.58,1.44 454.64,0.2 464.42,0.11 Q 477.92,2.39 498.34,11.25" data-line="nan"  stroke-width="45.0"/>
    <path d="M 836.59,179.78 C 886.11,204.52 894.46,209.78 901.56,215.6 C 909.82,225.03 915.64,235.0 919.73,248.07 L 921.2,259.25" data-line="nan"  stroke-width="45.0"/>
    <path d="M 489.92,840.49 L 248.9,839.74" data-line="0.0"  stroke-width="45.0"/>
    <path d="M 461.6,622.4 L 461.54,840.48" data-line="1.0"  stroke-width="45.0"/>
    <path d="M 479.33,622.39 L 490.18,622.39" data-line="2.0"  stroke-width="45.0"/>
    <path d="M 479.33,622.39 L 247.96,623.06" data-line="3.0"  stroke-width="45.0"/>
    <path d="M 225.17,822.91 L 222.15,816.65" data-line="4.0"  stroke-width="45.0"/>
    <path d="M 225.17,822.91 L 226.86,825.72" data-line="5.0"  stroke-width="45.0"/>
    <path d="M 226.86,825.72 L 229.57,829.41" data-line="6.0"  stroke-width="45.0"/>
    <path d="M 229.57,829.41 L 232.87,832.71" data-line="7.0"  stroke-width="45.0"/>
    <path d="M 232.87,832.71 L 236.65,835.41" data-line="8.0"  stroke-width="45.0"/>
    <path d="M 236.65,835.41 L 240.72,837.45" data-line="9.0"  stroke-width="45.0"/>
    <path d="M 240.72,837.45 L 244.88,838.86" data-line="10.0"  stroke-width="45.0"/>
    <path d="M 244.88,838.86 L 248.9,839.74" data-line="11.0"  stroke-width="45.0"/>
    <path d="M 223.24,645.68 L 222.15,816.65" data-line="13.0"  stroke-width="45.0"/>
    <path d="M 223.24,645.68 L 224.43,641.67" data-line="14.0"  stroke-width="45.0"/>
    <path d="M 224.43,641.67 L 226.32,637.66" data-line="15.0"  stroke-width="45.0"/>
    <path d="M 226.32,637.66 L 228.95,633.85" data-line="16.0"  stroke-width="45.0"/>
    <path d="M 228.95,633.85 L 232.26,630.37" data-line="17.0"  stroke-width="45.0"/>
    <path d="M 232.26,630.37 L 236.03,627.53" data-line="18.0"  stroke-width="45.0"/>
    <path d="M 236.03,627.53 L 240.07,625.38" data-line="19.0"  stroke-width="45.0"/>
    <path d="M 240.07,625.38 L 244.09,623.95" data-line="20.0"  stroke-width="45.0"/>
    <path d="M 244.09,623.95 L 247.96,623.06" data-line="21.0"  stroke-width="45.0"/>
    <path d="M 353.29,436.0 L 350.69,622.37" data-line="23.0"  stroke-width="45.0"/>
    <path d="M 353.2900000000683,436.00000000003405 A 35.95288658065908,35.95288658065908 0 0,1 356.1000000000583,431.30000000004117" data-line="24.0"  stroke-width="45.0"/>
    <path d="M 356.1000000003803,431.30000000029236 A 50.01370920872717,50.01370920872717 0 0,1 359.8800000003461,426.93000000033624" data-line="25.0"  stroke-width="45.0"/>
    <path d="M 359.88,426.93 Q 361.90999954672816,425.00000111600593 363.62,423.87" data-line="26.0"  stroke-width="45.0"/>
    <path d="M 363.62,423.87 L 365.69,422.64" data-line="27.0"  stroke-width="45.0"/>
    <path d="M 365.69,422.64 Q 367.69999999501266,421.60499999751175 369.71,420.91" data-line="28.0"  stroke-width="45.0"/>
    <path d="M 369.71,420.91 Q 371.67499999576495,420.3249999945451 373.26,419.96" data-line="29.0"  stroke-width="45.0"/>
    <path d="M 373.26,419.96 L 553.63,422.28" data-line="30.0"  stroke-width="45.0"/>
    <path d="M 553.63,422.28 L 555.77,423.42" data-line="31.0"  stroke-width="45.0"/>
    <path d="M 555.7699999999726,423.42000000004214 A 31.981384490911832,31.981384490911832 0 0,1 560.1399999999836,426.8300000000176" data-line="32.0"  stroke-width="45.0"/>
    <path d="M 560.14,426.83 Q 562.6399970920269,429.2449998759155 564.22,431.28" data-line="33.0"  stroke-width="45.0"/>
    <path d="M 564.22,431.28 L 565.72,433.52" data-line="34.0"  stroke-width="45.0"/>
    <path d="M 565.7217927721938,433.5190390513217 A 33.546754966993674,33.546754966993674 0 0,1 568.868925480162,441.94024394922565" data-line="35.0"  stroke-width="45.0"/>
    <path d="M 568.90204644593,441.9354525674491 A 70.70321557017705,70.70321557017705 0 0,1 569.5981922218914,452.7197375232404" data-line="36.0"  stroke-width="45.0"/>
    <path d="M 118.21,818.24 L 121.97,338.27" data-line="42.0"  stroke-width="45.0"/>
    <path d="M 118.20999998357269,818.2399999946234 A 37.35634034009201,37.35634034009201 0 0,1 115.69999998466882,824.1399999918589" data-line="43.0"  stroke-width="45.0"/>
    <path d="M 115.7,824.14 L 114.27,826.38" data-line="44.0"  stroke-width="45.0"/>
    <path d="M 114.27324250411051,826.3825146342774 A 42.36184898203326,42.36184898203326 0 0,1 105.613369892912,834.7546623885031" data-line="45.0"  stroke-width="45.0"/>
    <path d="M 105.61,834.75 L 103.52,836.0" data-line="46.0"  stroke-width="45.0"/>
    <path d="M 103.52,836.0 C 65.96767939053954,842.4217096486408 50.65189076067207,845.1824928392224 13.63,834.02" data-line="47.0"  stroke-width="45.0"/>
    <path d="M 13.63,834.02 Q 11.974998554996253,832.7999989356424 9.98,830.82" data-line="48.0"  stroke-width="45.0"/>
    <path d="M 9.980000030784897,830.8199999709876 A 42.513244518060105,42.513244518060105 0 0,1 5.950000035152691,825.8399999756955" data-line="49.0"  stroke-width="45.0"/>
    <path d="M 5.95,825.84 L 4.1,822.8" data-line="50.0"  stroke-width="45.0"/>
    <path d="M 4.1,822.8 L 2.63,819.72" data-line="51.0"  stroke-width="45.0"/>
    <path d="M 2.63,819.72 L 0.0,269.79" data-line="52.0"  stroke-width="45.0"/>
    <path d="M 801.01,447.78 L 798.28,337.29" data-line="53.0"  stroke-width="45.0"/>
    <path d="M 798.28,337.29 Q 796.9749987949652,334.13499968036604 795.17,330.92" data-line="54.0"  stroke-width="45.0"/>
    <path d="M 795.1699999975242,330.92000000146527 A 43.6229809288975,43.6229809288975 0 0,0 791.5099999975268,325.6600000020058" data-line="55.0"  stroke-width="45.0"/>
    <path d="M 791.5001762200071,325.6685024743998 A 38.26004030350704,38.26004030350704 0 0,0 777.0475828037999,315.29144976246675" data-line="56.0"  stroke-width="45.0"/>
    <path d="M 777.04,315.31 L 143.77,315.47" data-line="57.0"  stroke-width="45.0"/>
    <path d="M 143.77,315.47 L 140.73,316.87" data-line="58.0"  stroke-width="45.0"/>
    <path d="M 140.70343390664564,316.822438435947 A 41.69191216519146,41.69191216519146 0 0,0 122.09690252582591,338.31856958700075" data-line="59.0"  stroke-width="45.0"/>
    <path d="M 554.19,947.49 L 554.34,554.32" data-line="59.0"  stroke-width="45.0"/>
    <path d="M 594.02,512.78 L 977.35,512.15" data-line="61.0"  stroke-width="45.0"/>
    <path d="M 654.97,737.55 L 853.11,737.21" data-line="62.0"  stroke-width="45.0"/>
    <path d="M 655.13,838.18 L 757.43,838.11" data-line="63.0"  stroke-width="45.0"/>
    <path d="M 1023.84,552.91 L 1023.85,981.91" data-line="63.0"  stroke-width="45.0"/>
    <path d="M 654.01,627.87 L 891.54,627.71" data-line="64.0"  stroke-width="45.0"/>
    <path d="M 977.99,1023.55 L 598.51,1023.71" data-line="65.0"  stroke-width="45.0"/>
    <path d="M 557.81,996.3 L 559.15,999.54" data-line="66.0"  stroke-width="45.0"/>
    <path d="M 61.29,191.0 L 430.12,7.01" data-line="67.0"  stroke-width="45.0"/>
    <path d="M 0.0,269.79 C -6.888184524894981,243.0776264514474 18.292717822304407,204.60481379719786 61.29,191.0" data-line="67.0"  stroke-width="45.0"/>
    <path d="M 498.34,11.25 L 836.59,179.78" data-line="69.0"  stroke-width="45.0"/>
    <path d="M 921.2,259.25 L 921.47,447.78" data-line="71.0"  stroke-width="45.0"/>
  </g>
</svg>