<svg xmlns="http://www.w3.org/2000/svg" width="1024" height="1024" viewBox="-51.5 -51.5 1127.0 1127.0">
  <g fill="none" stroke="black" stroke-width="45" stroke-linecap="round" stroke-linejoin="round">
    <path d="M 849.81,437.6 C 858.67,412.79 863.48,395.88 866.52,378.95 C 868.04,357.71 867.66,336.53 865.14,315.38 C 860.12,294.18 852.94,273.0 845.38,255.93 C 838.45,243.57 829.89,230.76 819.81,218.1 C 807.86,205.3 794.99,193.27 778.03,179.7 C 755.92,163.9 751.78,159.94 748.71,155.59 C 745.62,146.32 739.54,116.23 735.39,103.8 C 729.68,91.06 722.39,78.14 713.53,65.45 C 702.31,52.64 693.63,44.59 680.6,34.49 C 663.72,23.99 646.68,15.76 629.84,9.67 C 608.77,4.17 591.77,1.39 575.03,0.21 C 558.39,0.96 538.66,3.9 522.24,8.17 C 505.78,14.5 491.83,21.73 478.01,30.92 C 467.41,39.43 455.2,51.06 436.64,71.35" data-line="nan"  stroke-width="45.0"/>
    <path d="M 436.64,71.35 C 410.75,44.49 392.15,28.5 372.98,16.4 C 360.65,10.91 349.08,6.86 336.75,3.65 C 323.13,1.31 298.79,0.08 277.99,1.81 C 265.36,3.73 248.82,7.71 236.2,11.78 C 224.4,16.42 209.6,23.75 186.8,38.72 C 168.03,55.66 159.28,65.78 151.51,76.58 C 144.34,89.08 138.66,101.18 133.73,114.1 C 130.71,125.44 125.17,158.75 127.71,181.88" data-line="nan"  stroke-width="45.0"/>
    <path d="M 436.44,844.43 C 423.56,864.28 414.97,875.74 402.44,888.52 C 390.06,898.14 375.57,906.73 362.65,912.41 C 346.3,917.48 327.82,920.69 306.66,921.58 C 285.53,920.23 265.39,916.44 244.49,910.17 C 226.38,902.66 209.53,893.54 192.84,881.62 C 178.27,868.57 164.45,853.78 151.04,836.27 C 140.21,819.01 130.28,799.53 124.5,785.71 C 119.72,770.74 114.94,750.59 110.49,723.29 C 107.78,717.64 102.64,712.74 84.88,700.36 C 71.57,689.59 58.68,677.35 45.19,662.58 C 35.0,649.54 25.52,634.99 17.76,620.35 C 12.05,606.66 5.95,585.86 1.91,563.5 C 0.21,544.11 0.47,516.9 2.77,497.7 C 6.69,480.4 13.68,460.87 23.84,437.76" data-line="nan"  stroke-width="45.0"/>
    <path d="M 125.17,158.75 C 83.4,191.6 66.97,207.09 55.36,219.46 C 43.36,234.46 33.36,249.64 23.52,267.87 C 16.41,284.65 11.16,301.92 7.48,322.28 C 6.47,339.42 6.48,364.43 8.01,381.43 C 11.36,399.66 16.37,417.26 23.84,437.76" data-line="nan"  stroke-width="45.0"/>
    <path d="M 1024.0,767.2 C 970.13,748.48 949.65,739.57 929.23,729.04 C 912.08,718.65 891.86,704.23 874.57,689.85 C 859.14,675.07 843.54,657.97 830.07,640.76 C 818.3,623.38 806.72,603.44 797.57,584.97 Q 789.91,566.82 771.59,512.0" data-line="nan"  stroke-width="45.0"/>
    <path d="M 1024.0,767.2 C 971.69,785.18 951.87,793.76 933.84,803.0 C 914.39,814.78 895.1,828.49 877.9,842.76 C 862.21,857.71 846.72,874.53 833.1,891.61 C 819.92,910.69 808.38,930.13 797.92,950.94 Q 789.51,970.82 771.43,1024.0" data-line="nan"  stroke-width="45.0"/>
    <path d="M 771.43,1024.0 C 754.57,972.28 746.03,951.58 736.48,932.05 C 724.92,911.94 712.9,893.95 698.5,875.38 C 683.98,859.22 667.59,843.46 651.86,830.38 C 634.71,818.01 615.24,806.0 594.75,795.28 Q 575.66,786.8 523.47,768.18" data-line="nan"  stroke-width="45.0"/>
    <path d="M 771.59,512.0 C 752.79,568.13 744.84,587.23 735.63,606.15 C 724.95,624.9 712.22,643.93 697.4,662.89 C 683.26,678.4 667.87,693.07 649.12,708.49 C 633.37,719.72 614.13,731.56 595.24,741.45 Q 576.4,749.8 523.47,768.18" data-line="nan"  stroke-width="45.0"/>
    <path d="M 523.4023968813874,915.9724777038671 A 140.3790306396971,140.3790306396971 0 0,1 437.11015473935765,844.0940041065601" data-line="1.0"  stroke-width="45.0"/>
    <path d="M 871.97,512.0 L 849.81,437.6" data-line="2.0"  stroke-width="45.0"/>
    <path d="M 436.64,71.35 L 436.44,844.43" data-line="3.0"  stroke-width="45.0"/>
    <path d="M 128.18596236932902,181.84141963094788 A 177.56514340539857,177.56514340539857 0 0,0 268.7789068986328,341.29138801602187" data-line="7.0"  stroke-width="45.0"/>
    <path d="M 604.6551276074262,389.63190868167277 A 169.38755736149898,169.38755736149898 0 0,1 726.7356467098256,466.3433224160571" data-line="16.0"  stroke-width="45.0"/>
  </g>
</svg>