<svg xmlns="http://www.w3.org/2000/svg" width="1024" height="1024" viewBox="-51.5 -51.5 1127.0 1127.0">
  <g fill="none" stroke="black" stroke-width="45" stroke-linecap="round" stroke-linejoin="round">
    <path d="M 756.742,324.104 C 779.161,318.048 787.994,313.771 794.647,308.815 C 801.624,301.24 807.812,291.006 811.272,281.297 C 812.239,272.65 810.971,262.39 807.047,251.571 C 801.478,243.238 794.864,237.143 787.575,232.336 C 774.814,226.907 740.761,219.07 733.791,216.957 C 727.217,213.922 719.73,208.694 713.159,202.161 C 708.588,195.624 704.465,186.798 701.654,175.085 C 701.775,163.763 704.886,152.926 711.217,142.228 C 718.657,134.587 729.078,127.682 739.349,123.427 L 756.203,119.41" data-line="nan"  stroke-width="45.0"/>
    <path d="M 447.368,549.077 C 436.62,562.657 424.475,575.33 412.051,585.636 C 398.841,594.236 380.5,603.466 364.762,609.227 C 346.733,613.701 330.776,615.728 312.419,615.826 C 295.315,613.893 278.962,610.104 262.268,604.091 C 246.203,596.186 231.741,586.801 219.382,576.698 C 207.209,564.331 193.945,547.75 184.679,532.94 C 175.984,514.664 169.327,495.199 164.855,476.148 C 162.221,455.571 161.12,430.784 161.557,407.844 C 163.486,389.141 167.067,372.538 172.562,354.488 C 179.145,339.027 187.574,324.102 196.492,311.757 C 207.724,299.086 220.23,287.187 230.639,278.984 C 244.248,270.393 257.84,263.79 274.69,257.494 C 289.919,253.583 303.807,251.529 320.246,250.631 C 336.815,251.323 351.476,253.322 365.042,256.485 C 379.495,261.343 394.266,268.08 408.482,276.773 C 419.199,284.79 431.507,295.669 441.116,305.708 C 449.418,315.837 456.5,326.364 463.545,339.691 C 469.931,354.979 474.81,369.904 478.24,384.535 C 480.288,398.626 481.197,413.256 481.298,438.047 C 480.385,456.457 478.76,470.709 475.359,487.678 C 470.197,504.7 464.624,518.724 456.321,535.12 L 447.368,549.077" data-line="nan"  stroke-width="45.0"/>
    <path d="M 427.027,656.52 C 457.531,662.64 482.029,669.604 503.068,677.665 C 523.525,687.855 544.206,700.383 564.973,715.786 C 580.935,730.71 597.792,751.114 608.404,767.669 C 616.617,783.98 624.268,804.691 628.174,821.196 C 629.686,833.571 630.36,850.129 630.629,936.897" data-line="nan"  stroke-width="45.0"/>
    <path d="M 630.629,936.897 C 630.188,986.504 628.409,995.151 626.673,999.607 C 621.278,1007.896 613.717,1014.391 605.221,1018.264 Q 592.623,1019.884 567.869,1019.994" data-line="nan"  stroke-width="45.0"/>
    <path d="M 51.452,1019.846 C 39.016,1018.695 30.623,1015.384 26.619,1012.694 C 19.876,1005.635 17.368,1001.536 14.188,993.088 Q 12.637,976.723 12.556,861.147" data-line="nan"  stroke-width="45.0"/>
    <path d="M 12.556,861.147 C 12.992,840.707 14.774,824.216 18.315,807.862 C 23.681,791.792 31.045,775.257 40.478,758.795 C 52.234,742.619 63.492,730.007 80.05,714.853 C 96.32,702.66 116.751,689.898 133.327,681.267 C 149.774,674.173 170.297,667.065 194.957,660.63 L 216.411,656.575" data-line="nan"  stroke-width="45.0"/>
    <circle cx="757.4871453678958" cy="261.0063623655962" r="255.4749117285241" data-line="0.0"  stroke-width="45.0"/>
    <path d="M 685.654,347.29 L 590.488,456.066" data-line="1.0"  stroke-width="45.0"/>
    <path d="M 781.021,434.517 L 685.654,347.29" data-line="2.0"  stroke-width="45.0"/>
    <path d="M 939.034,203.551 L 781.021,434.517" data-line="3.0"  stroke-width="45.0"/>
    <path d="M 949.355,261.967 L 939.034,203.551" data-line="4.0"  stroke-width="45.0"/>
    <path d="M 886.238,207.222 L 938.516,200.711" data-line="5.0"  stroke-width="45.0"/>
    <path d="M 567.869,1019.994 L 51.452,1019.846" data-line="15.0"  stroke-width="45.0"/>
    <path d="M 756.802,88.325 L 756.203,119.41" data-line="16.0"  stroke-width="45.0"/>
    <path d="M 701.4013726576525,282.2521674544368 A 54.52400390191382,54.52400390191382 0 0,0 756.6865197413546,322.91315359757937" data-line="18.0"  stroke-width="45.0"/>
    <path d="M 757.006,348.993 L 756.742,324.104" data-line="19.0"  stroke-width="45.0"/>
    <path d="M 756.3303377379877,120.53583667278113 A 50.45855480467218,50.45855480467218 0 0,1 810.2844284448367,156.01848920722387" data-line="20.0"  stroke-width="45.0"/>
    <path d="M 427.027,656.52 C 363.5129490608242,731.6438589508347 278.9762289736152,730.1946542532366 216.411,656.575" data-line="26.0"  stroke-width="45.0"/>
  </g>
</svg>