<svg xmlns="http://www.w3.org/2000/svg" width="1024" height="1024" viewBox="-51.5 -51.5 1127.0 1127.0">
  <g fill="none" stroke="black" stroke-width="45" stroke-linecap="round" stroke-linejoin="round">
    <path d="M 0.15,266.68 C 1.99,256.63 4.43,251.73 8.09,247.2 Q 17.58,239.75 137.98,173.35" data-line="nan"  stroke-width="45.0"/>
    <path d="M 443.78,5.59 C 457.32,0.25 460.83,0.0 467.21,1.56 L 541.2,41.4" data-line="nan"  stroke-width="45.0"/>
    <path d="M 904.7,239.43 C 915.33,247.49 919.16,252.75 921.07,258.43 L 921.47,313.72" data-line="nan"  stroke-width="45.0"/>
    <path d="M 557.81,996.3 C 555.48,989.61 554.2,982.24 554.19,947.49" data-line="nan"  stroke-width="45.0"/>
    <path d="M 554.34,554.32 C 555.35,546.94 557.54,540.11 561.12,533.38 C 565.74,527.45 571.5,522.15 578.45,517.68 Q 585.1,514.89 594.02,512.78" data-line="nan"  stroke-width="45.0"/>
    <path d="M 977.35,512.15 C 986.52,513.18 994.38,515.52 1002.16,519.44 C 1009.74,525.16 1015.23,531.02 1019.67,538.19 Q 1022.54,545.53 1023.84,552.91" data-line="nan"  stroke-width="45.0"/>
    <path d="M 1023.85,981.91 C 1022.36,990.55 1019.44,997.9 1015.46,1004.15 C 1009.45,1010.52 1002.05,1015.91 993.51,1020.13 Q 987.25,1022.13 977.99,1023.55" data-line="nan"  stroke-width="45.0"/>
    <path d="M 598.51,1023.71 C 585.42,1020.59 573.29,1014.25 564.38,1006.37 Q 559.15,999.54 557.81,996.3" data-line="nan"  stroke-width="45.0"/>
    <path d="M 144.23,662.44 L 490.18,662.46" data-line="1.0"  stroke-width="45.0"/>
    <path d="M 490.18,829.49 L 144.39,829.19" data-line="2.0"  stroke-width="45.0"/>
    <path d="M 144.58,337.1 L 144.39,829.19" data-line="3.0"  stroke-width="45.0"/>
    <path d="M 510.94,493.49 L 144.25,492.93" data-line="4.0"  stroke-width="45.0"/>
    <path d="M 778.3,336.81 L 144.58,337.1" data-line="5.0"  stroke-width="45.0"/>
    <path d="M 778.29,448.0 L 778.3,336.81" data-line="6.0"  stroke-width="45.0"/>
    <path d="M 0.15,829.28 L 0.15,266.68" data-line="9.0"  stroke-width="45.0"/>
    <path d="M 137.98,173.35 L 443.78,5.59" data-line="11.0"  stroke-width="45.0"/>
    <path d="M 541.2,41.4 L 904.7,239.43" data-line="13.0"  stroke-width="45.0"/>
    <path d="M 921.47,313.72 L 921.5,448.09" data-line="15.0"  stroke-width="45.0"/>
    <path d="M 654.97,737.55 L 853.11,737.21" data-line="16.0"  stroke-width="45.0"/>
    <path d="M 655.13,838.18 L 757.43,838.11" data-line="17.0"  stroke-width="45.0"/>
    <path d="M 554.19,947.49 L 554.34,554.32" data-line="17.0"  stroke-width="45.0"/>
    <path d="M 654.01,627.87 L 891.54,627.71" data-line="18.0"  stroke-width="45.0"/>
    <path d="M 594.02,512.78 L 977.35,512.15" data-line="19.0"  stroke-width="45.0"/>
    <path d="M 1023.84,552.91 L 1023.85,981.91" data-line="21.0"  stroke-width="45.0"/>
    <path d="M 977.99,1023.55 L 598.51,1023.71" data-line="23.0"  stroke-width="45.0"/>
  </g>
</svg>