<svg xmlns="http://www.w3.org/2000/svg" width="1024" height="1024" viewBox="-51.5 -51.5 1127.0 1127.0">
  <g fill="none" stroke="black" stroke-width="45" stroke-linecap="round" stroke-linejoin="round">
    <path d="M 808.16,160.71 C 760.84,183.48 731.72,194.28 714.37,199.25 C 695.31,203.6 674.96,206.99 654.53,209.18 C 612.53,210.21 588.16,208.64 565.9,205.82 C 545.41,201.91 523.68,196.36 501.39,188.97 L 485.05,182.47" data-line="nan"  stroke-width="45.0"/>
    <path d="M 393.39,141.3 C 371.06,132.69 348.0,125.48 324.92,119.66 C 302.64,115.39 280.36,112.53 258.02,111.08 C 239.67,111.16 214.87,112.73 192.68,115.49 C 168.31,120.15 148.27,125.29 127.4,131.96 C 109.3,138.84 88.73,147.97 41.55,173.5" data-line="nan"  stroke-width="45.0"/>
    <path d="M 738.5,461.53 C 705.71,401.75 703.17,395.66 702.97,388.97 C 705.22,382.47 739.62,315.95 763.06,268.13 Q 784.4,219.31 808.16,160.71" data-line="nan"  stroke-width="45.0"/>
    <path d="M 594.7,609.11 C 570.25,606.24 544.55,601.65 520.71,595.92 C 495.59,588.2 457.15,572.87 402.05,546.16 C 378.9,535.74 353.45,525.97 329.4,518.41 C 304.46,512.42 279.75,508.42 257.93,506.93 L 231.28,506.84" data-line="nan"  stroke-width="45.0"/>
    <path d="M 883.14,898.24 C 931.61,905.35 951.56,909.93 968.93,915.22 C 986.15,922.08 1002.39,930.44 1011.66,937.02 C 1019.55,945.73 1023.51,955.04 1023.69,962.98 C 1020.58,971.52 1013.78,979.95 1004.58,987.42 C 991.29,994.91 972.5,1002.67 952.43,1009.04" data-line="nan"  stroke-width="45.0"/>
    <path d="M 706.69,836.59 C 689.66,809.03 675.3,781.72 663.68,754.62 C 655.52,730.28 650.65,709.09 648.25,687.97 C 648.47,666.94 651.3,645.84 657.97,621.71 C 667.29,600.63 678.65,582.39 693.71,564.43 C 710.82,548.97 729.04,536.4 750.31,525.57 C 771.36,518.25 795.44,513.4 808.24,512.23 C 821.47,512.06 847.18,514.67 869.8,520.1 C 892.45,528.97 914.03,541.23 926.27,550.2 C 935.17,557.9 951.77,575.75 965.47,595.57 C 975.45,615.78 982.79,638.32 985.59,651.79 C 987.14,664.37 987.46,688.31 984.48,711.56 Q 977.55,738.95 968.09,764.36" data-line="nan"  stroke-width="45.0"/>
    <path d="M 968.09,764.36 C 956.58,789.06 941.67,816.1 926.38,840.33 C 905.92,869.33 883.14,898.24 868.46,914.6 Q 843.22,941.7 817.76,967.29" data-line="nan"  stroke-width="45.0"/>
    <path d="M 952.43,1009.04 C 932.88,1013.7 914.57,1017.04 870.43,1021.96 C 821.88,1024.0 768.93,1022.08 726.36,1017.48 C 706.41,1013.99 687.23,1009.61 669.39,1004.45 C 652.42,998.26 639.9,992.39 629.28,985.7" data-line="nan"  stroke-width="45.0"/>
    <path d="M 629.28,985.7 C 622.09,979.62 616.6,973.31 613.25,966.59 C 612.15,960.17 613.07,952.85 616.12,945.6 C 619.32,941.15 627.66,933.81 639.41,926.68 C 650.77,921.08 677.6,911.4 710.45,904.0 L 752.69,898.29" data-line="nan"  stroke-width="45.0"/>
    <path d="M 41.38,83.96 L 41.72,921.6" data-line="3.0"  stroke-width="45.0"/>
    <circle cx="39.73129788694128" cy="40.07820536391534" r="39.97523820563982" data-line="4.0"  stroke-width="45.0"/>
    <path d="M 485.05,182.47 L 393.39,141.3" data-line="6.0"  stroke-width="45.0"/>
    <circle cx="817.943500575597" cy="676.2910261631839" r="81.77134502222437" data-line="11.0"  stroke-width="45.0"/>
    <path d="M 817.76,967.29 L 706.69,836.59" data-line="13.0"  stroke-width="45.0"/>
    <path d="M 231.25951817230705,506.49824930461205 A 383.6207524779338,383.6207524779338 0 0,0 41.944268452169496,569.8879375160685" data-line="16.0"  stroke-width="45.0"/>
  </g>
</svg>