<svg xmlns="http://www.w3.org/2000/svg" width="1024" height="1024" viewBox="-51.5 -51.5 1127.0 1127.0">
  <g fill="none" stroke="black" stroke-width="45" stroke-linecap="round" stroke-linejoin="round">
    <path d="M 859.96,1.42 C 875.05,0.0 882.59,0.59 888.31,2.0 C 899.63,7.12 909.24,15.42 915.82,25.31 C 919.08,33.24 920.56,39.09 921.57,47.73 L 921.57,69.58" data-line="nan"  stroke-width="45.0"/>
    <path d="M 512.0,845.98 C 513.59,861.42 518.77,875.67 527.18,887.97 C 537.66,897.44 550.54,904.42 563.28,908.0 Q 571.77,908.85 602.8,909.2" data-line="nan"  stroke-width="45.0"/>
    <path d="M 239.33,494.05 L 107.36,494.63" data-line="0.0"  stroke-width="45.0"/>
    <path d="M 194.39,830.02 L 109.33,494.67" data-line="1.0"  stroke-width="45.0"/>
    <path d="M 194.39,830.02 L 197.15,834.91" data-line="2.0"  stroke-width="45.0"/>
    <path d="M 197.15,834.91 L 200.7,839.47" data-line="3.0"  stroke-width="45.0"/>
    <path d="M 200.7,839.47 L 204.97,843.27" data-line="4.0"  stroke-width="45.0"/>
    <path d="M 204.97,843.27 L 209.72,846.18" data-line="5.0"  stroke-width="45.0"/>
    <path d="M 209.72,846.18 L 214.71,848.23" data-line="6.0"  stroke-width="45.0"/>
    <path d="M 214.71,848.23 L 219.64,849.58" data-line="7.0"  stroke-width="45.0"/>
    <path d="M 219.64,849.58 L 302.98,848.58" data-line="8.0"  stroke-width="45.0"/>
    <path d="M 302.98,848.58 L 308.09,846.75" data-line="9.0"  stroke-width="45.0"/>
    <path d="M 308.09,846.75 L 313.13,844.06" data-line="10.0"  stroke-width="45.0"/>
    <path d="M 313.13,844.06 L 317.73,840.42" data-line="11.0"  stroke-width="45.0"/>
    <path d="M 317.73,840.42 L 321.61,836.0" data-line="12.0"  stroke-width="45.0"/>
    <path d="M 321.61,836.0 L 324.45,831.03" data-line="13.0"  stroke-width="45.0"/>
    <path d="M 324.45,831.03 L 326.23,825.9" data-line="14.0"  stroke-width="45.0"/>
    <path d="M 326.23,825.9 L 327.03,820.75" data-line="15.0"  stroke-width="45.0"/>
    <path d="M 327.03,820.75 L 327.07,815.72" data-line="16.0"  stroke-width="45.0"/>
    <path d="M 327.07,815.72 L 243.64,494.85" data-line="17.0"  stroke-width="45.0"/>
    <path d="M 107.17927872984265,493.1211152835222 A 96.39316809054354,96.39316809054354 0 0,1 -0.5947479545139913,401.39584244029584" data-line="18.0"  stroke-width="45.0"/>
    <path d="M 239.33,494.05 L 239.1,191.78" data-line="19.0"  stroke-width="45.0"/>
    <path d="M 823.83,48.98 L 239.1,191.78" data-line="20.0"  stroke-width="45.0"/>
    <path d="M 824.27,488.23 L 823.83,48.98" data-line="21.0"  stroke-width="45.0"/>
    <path d="M 462.59,556.05 L 243.64,494.85" data-line="22.0"  stroke-width="45.0"/>
    <path d="M 825.7400000000104,36.9200000000022 A 118.916218491351,118.916218491351 0 0,0 823.8300000000086,48.9800000000009" data-line="23.0"  stroke-width="45.0"/>
    <path d="M 825.7400000001232,36.920000000031834 A 71.73091153178338,71.73091153178338 0 0,1 828.6900000001197,27.970000000048337" data-line="24.0"  stroke-width="45.0"/>
    <path d="M 828.69,27.97 L 831.23,23.05" data-line="25.0"  stroke-width="45.0"/>
    <path d="M 831.23,23.05 L 834.53,18.27" data-line="26.0"  stroke-width="45.0"/>
    <path d="M 834.53,18.27 L 838.48,13.71" data-line="27.0"  stroke-width="45.0"/>
    <path d="M 838.48,13.71 L 842.94,9.73" data-line="28.0"  stroke-width="45.0"/>
    <path d="M 842.94,9.73 L 847.55,6.54" data-line="29.0"  stroke-width="45.0"/>
    <path d="M 847.55,6.54 L 852.21,4.12" data-line="30.0"  stroke-width="45.0"/>
    <path d="M 852.21,4.12 L 856.38,2.47" data-line="31.0"  stroke-width="45.0"/>
    <path d="M 856.38,2.47 L 859.96,1.42" data-line="32.0"  stroke-width="45.0"/>
    <path d="M 720.78,908.94 L 957.99,908.92" data-line="40.0"  stroke-width="45.0"/>
    <path d="M 720.78,908.94 L 603.9,1024.0" data-line="41.0"  stroke-width="45.0"/>
    <path d="M 603.9,1024.0 L 602.8,909.2" data-line="42.0"  stroke-width="45.0"/>
    <path d="M 0.03,401.37 L 2.75,265.22" data-line="43.0"  stroke-width="45.0"/>
    <path d="M 2.0531090151325486,264.9941982389725 A 102.10208871995782,102.10208871995782 0 0,1 100.9438125956236,194.37889422221997" data-line="44.0"  stroke-width="45.0"/>
    <path d="M 100.95,194.02 L 239.1,191.78" data-line="45.0"  stroke-width="45.0"/>
    <path d="M 921.57,69.58 L 921.56,487.74" data-line="46.0"  stroke-width="45.0"/>
    <path d="M 957.9818262650635,909.0950947337549 A 63.64093440848486,63.64093440848486 0 0,0 1022.5030603659504,829.3578811843394" data-line="47.0"  stroke-width="45.0"/>
    <path d="M 1023.98,828.97 L 1023.99,619.86" data-line="48.0"  stroke-width="45.0"/>
    <path d="M 1024.144037610461,619.86823588899 A 64.76620379756825,64.76620379756825 0 0,0 943.41951768189,553.664528773166" data-line="49.0"  stroke-width="45.0"/>
    <path d="M 943.05,552.22 L 576.17,552.24" data-line="50.0"  stroke-width="45.0"/>
    <path d="M 576.1697304902707,552.2610702203922 A 63.48884410194498,63.48884410194498 0 0,0 512.3858567729494,623.8304550837856" data-line="51.0"  stroke-width="45.0"/>
    <path d="M 512.0,623.88 L 512.0,845.98" data-line="52.0"  stroke-width="45.0"/>
  </g>
</svg>