<svg xmlns="http://www.w3.org/2000/svg" width="1024" height="1024" viewBox="-51.5 -51.5 1127.0 1127.0">
  <g fill="none" stroke="black" stroke-width="45" stroke-linecap="round" stroke-linejoin="round">
    <path d="M 754.08,127.749 C 753.689,112.712 752.444,102.572 748.445,87.357 C 744.295,77.383 738.803,67.392 731.633,57.197 C 722.747,47.276 712.891,38.637 702.652,31.659 C 692.337,26.272 682.278,22.406 672.273,19.805 Q 657.256,18.075 617.328,17.904" data-line="nan"  stroke-width="45.0"/>
    <path d="M 122.948,17.891 C 109.412,18.244 97.244,19.879 88.224,21.921 C 76.685,25.984 65.642,31.476 56.806,37.111 C 45.392,46.742 38.193,54.525 29.84,66.033 C 25.959,72.733 21.113,83.444 17.338,95.794 Q 14.858,113.082 14.621,153.057" data-line="nan"  stroke-width="45.0"/>
    <path d="M 14.625,912.042 C 15.085,924.595 16.864,936.76 20.204,949.254 C 24.584,960.294 29.943,970.236 36.293,979.556 C 44.267,988.722 54.355,997.862 62.152,1003.435 C 74.542,1010.421 86.392,1015.235 96.498,1017.959 Q 111.496,1019.874 154.281,1019.977" data-line="nan"  stroke-width="45.0"/>
    <path d="M 648.609,1019.975 C 661.045,1019.59 671.005,1018.287 683.749,1015.012 C 694.281,1010.884 707.307,1003.679 717.068,996.594 C 726.492,987.811 733.114,980.095 738.5,972.466 C 744.355,962.106 748.62,951.853 752.211,938.911 Q 753.967,923.738 754.076,883.731" data-line="nan"  stroke-width="45.0"/>
    <path d="M 163.011,423.151 L 455.815,423.271" data-line="0.0"  stroke-width="45.0"/>
    <path d="M 1006.702,323.706 L 700.612,692.189" data-line="1.0"  stroke-width="45.0"/>
    <path d="M 571.029,537.455 L 700.612,692.189" data-line="2.0"  stroke-width="45.0"/>
    <path d="M 754.187,458.92 L 754.08,127.749" data-line="5.0"  stroke-width="45.0"/>
    <path d="M 164.387,228.282 L 597.578,228.329" data-line="6.0"  stroke-width="45.0"/>
    <path d="M 164.387,809.203 L 457.768,809.184" data-line="7.0"  stroke-width="45.0"/>
    <path d="M 163.233,616.549 L 454.439,616.609" data-line="8.0"  stroke-width="45.0"/>
    <path d="M 617.328,17.904 L 122.948,17.891" data-line="10.0"  stroke-width="45.0"/>
    <path d="M 14.621,153.057 L 14.625,912.042" data-line="12.0"  stroke-width="45.0"/>
    <path d="M 154.281,1019.977 L 648.609,1019.975" data-line="14.0"  stroke-width="45.0"/>
    <path d="M 754.076,883.731 L 754.21,763.329" data-line="16.0"  stroke-width="45.0"/>
  </g>
</svg>