<svg xmlns="http://www.w3.org/2000/svg" width="1024" height="1024" viewBox="-51.5 -51.5 1127.0 1127.0">
  <g fill="none" stroke="black" stroke-width="45" stroke-linecap="round" stroke-linejoin="round">
    <path d="M 968.495,798.594 C 985.588,797.178 994.287,794.174 998.73,791.76 C 1007.194,785.019 1010.763,780.944 1016.093,772.038 C 1019.808,758.933 1018.969,746.147 1014.51,733.194 L 1004.903,712.169" data-line="nan"  stroke-width="45.0"/>
    <path d="M 1004.903,712.169 L 944.565,584.72" data-line="nan"  stroke-width="45.0"/>
    <path d="M 811.603,304.202 C 784.921,248.515 779.133,240.232 775.555,236.612 C 767.353,230.836 763.0,228.801 754.403,226.439 Q 741.794,225.403 716.387,225.269" data-line="nan"  stroke-width="45.0"/>
    <path d="M 484.107,225.251 C 440.267,226.036 413.7,225.067 377.59,225.088" data-line="nan"  stroke-width="45.0"/>
    <path d="M 275.613,225.248 C 267.079,226.504 258.817,229.508 253.393,232.507 C 247.23,237.913 241.126,246.274 226.631,276.418" data-line="nan"  stroke-width="45.0"/>
    <path d="M 10.66,732.929 C 4.981,746.942 4.0,755.786 5.453,764.876 C 7.653,771.723 13.983,782.134 22.538,790.211 C 35.48,796.541 48.062,798.647 67.411,798.746" data-line="nan"  stroke-width="45.0"/>
    <path d="M 733.439,798.933 L 968.495,798.594" data-line="0.0"  stroke-width="45.0"/>
    <path d="M 715.089,798.857 L 598.972,225.199" data-line="1.0"  stroke-width="45.0"/>
    <path d="M 914.825,522.301 L 658.47,524.598" data-line="2.0"  stroke-width="45.0"/>
    <path d="M 429.8,225.671 L 310.614,797.951" data-line="3.0"  stroke-width="45.0"/>
    <path d="M 67.411,798.746 L 733.439,798.933" data-line="7.0"  stroke-width="45.0"/>
    <path d="M 944.565,584.72 L 811.603,304.202" data-line="7.0"  stroke-width="45.0"/>
    <path d="M 716.387,225.269 L 484.107,225.251" data-line="9.0"  stroke-width="45.0"/>
    <path d="M 377.59,225.088 L 275.613,225.248" data-line="11.0"  stroke-width="45.0"/>
    <path d="M 226.631,276.418 L 10.66,732.929" data-line="13.0"  stroke-width="45.0"/>
  </g>
</svg>