<svg xmlns="http://www.w3.org/2000/svg" width="1024" height="1024" viewBox="-51.5 -51.5 1127.0 1127.0">
  <g fill="none" stroke="black" stroke-width="45" stroke-linecap="round" stroke-linejoin="round">
    <path d="M 862.23,410.68 C 850.19,370.17 837.05,335.48 821.47,302.14 C 804.07,271.33 782.73,239.94 760.2,212.21 C 735.83,186.7 707.57,161.41 679.27,140.0 C 646.51,119.38 617.77,104.54 587.77,91.98 C 561.92,83.31 535.54,76.47 430.92,58.24" data-line="nan"  stroke-width="45.0"/>
    <path d="M 614.75,422.87 C 608.23,356.35 601.15,313.9 594.65,285.53 C 588.08,261.93 573.18,219.42 556.23,181.72 C 546.27,163.0 534.66,143.8 514.22,115.62 L 475.08,70.73" data-line="nan"  stroke-width="45.0"/>
    <path d="M 430.92,58.24 C 346.84,72.47 319.53,78.36 300.1,83.74 C 278.13,91.1 258.65,98.75 238.2,108.0 C 220.03,117.42 198.61,130.12 179.77,142.81 C 161.14,156.83 145.21,170.16 126.71,187.37 Q 111.04,203.6 96.68,220.02" data-line="nan"  stroke-width="45.0"/>
    <path d="M 385.11,71.78 C 349.98,110.74 330.26,137.05 319.85,153.49 C 309.06,172.89 299.29,192.95 289.91,215.12 C 281.91,236.71 274.3,260.36 267.87,284.19 C 262.64,307.67 254.19,359.92 247.9,423.55" data-line="nan"  stroke-width="45.0"/>
    <path d="M 581.77,872.17 C 574.14,887.13 566.91,896.56 553.37,908.28 C 538.82,916.13 524.36,920.4 514.84,921.49 C 505.4,921.5 495.95,920.76 486.5,918.9 C 472.25,913.02 458.34,903.33 450.23,895.01 C 440.81,880.81 435.21,866.85 432.81,857.35 Q 431.05,843.41 430.83,786.9" data-line="nan"  stroke-width="45.0"/>
    <path d="M 812.72,512.0 C 803.86,517.15 780.72,533.09 761.92,544.29 C 739.91,555.36 713.93,565.98 689.61,573.74 C 664.86,579.62 639.53,583.77 604.14,587.52" data-line="nan"  stroke-width="45.0"/>
    <path d="M 1021.63,588.05 C 982.4,583.4 958.33,579.29 932.1,572.95 C 908.5,565.3 883.62,555.12 858.58,542.41 Q 842.29,532.47 812.72,512.0" data-line="nan"  stroke-width="45.0"/>
    <path d="M 1021.63,588.05 Q 1023.58,598.5 1023.97,626.69" data-line="nan"  stroke-width="45.0"/>
    <path d="M 1023.53,676.5 C 1021.66,704.68 1018.16,732.97 1012.83,763.2 C 1006.71,788.23 999.3,811.7 990.31,834.45 C 979.4,857.28 967.18,878.93 953.45,899.72 C 937.81,920.18 921.23,938.89 901.97,957.99 C 881.31,976.19 856.49,995.66 829.28,1014.31 L 812.14,1024.0" data-line="nan"  stroke-width="45.0"/>
    <path d="M 812.14,1024.0 C 796.86,1015.43 765.52,993.9 740.62,974.11 C 717.88,953.44 697.8,932.42 680.56,911.56 C 665.02,889.77 651.27,867.02 639.68,844.34 C 629.16,819.62 621.1,795.89 614.55,771.21 C 608.63,740.68 604.66,711.58 601.97,678.85 L 601.02,646.59" data-line="nan"  stroke-width="45.0"/>
    <path d="M 601.16,602.16 Q 601.77,595.48 604.14,587.52" data-line="nan"  stroke-width="45.0"/>
    <path d="M 96.68,220.02 C 81.76,238.86 66.56,260.53 52.54,283.06 C 40.53,305.13 29.59,328.39 18.9,354.99 Q 11.29,376.84 0.0,414.22" data-line="nan"  stroke-width="45.0"/>
    <path d="M 861.7611532073827,411.5118538435674 A 231.15333178482445,231.15333178482445 0 0,0 615.3696000967157,423.7517914528033" data-line="0.0"  stroke-width="45.0"/>
    <path d="M 247.0719706469862,424.6825702021034 A 223.2356757982996,223.2356757982996 0 0,0 -0.2084790993905159,413.8752958144193" data-line="5.0"  stroke-width="45.0"/>
    <path d="M 475.08,70.73 L 385.11,71.78" data-line="6.0"  stroke-width="45.0"/>
    <path d="M 606.2448119400653,426.7098636786308 A 353.59889591813976,353.59889591813976 0 0,0 255.89215806278426,427.33863314173914" data-line="7.0"  stroke-width="45.0"/>
    <path d="M 430.93,0.0 L 430.92,58.24" data-line="10.0"  stroke-width="45.0"/>
    <path d="M 1023.97,626.69 L 1023.53,676.5" data-line="14.0"  stroke-width="45.0"/>
    <path d="M 601.02,646.59 L 601.16,602.16" data-line="17.0"  stroke-width="45.0"/>
    <path d="M 430.83,786.9 L 430.77,381.89" data-line="31.0"  stroke-width="45.0"/>
  </g>
</svg>