<svg xmlns="http://www.w3.org/2000/svg" width="1024" height="1024" viewBox="-51.5 -51.5 1127.0 1127.0">
  <g fill="none" stroke="black" stroke-width="45" stroke-linecap="round" stroke-linejoin="round">
    <path d="M 243.586,723.882 C 246.538,735.277 252.594,746.204 262.128,757.138 C 274.707,766.614 290.391,774.379 303.16,778.343 Q 315.817,780.946 338.645,783.416" data-line="nan"  stroke-width="45.0"/>
    <path d="M 338.733,487.309 C 362.798,490.473 375.329,493.075 387.955,497.373 C 401.328,504.048 412.735,512.634 422.798,523.639 Q 429.286,534.118 433.517,545.941" data-line="nan"  stroke-width="45.0"/>
    <path d="M 658.534,734.385 C 667.725,696.213 672.126,666.429 673.378,641.071 C 672.332,598.591 666.881,562.701 658.236,529.602 Q 646.519,498.527 632.303,470.365" data-line="nan"  stroke-width="45.0"/>
    <path d="M 1020.0,235.831 L 837.003,53.774" data-line="0.0"  stroke-width="45.0"/>
    <path d="M 1020.0,235.831 L 907.181,238.677" data-line="1.0"  stroke-width="45.0"/>
    <path d="M 907.181,238.677 L 904.275,965.133" data-line="2.0"  stroke-width="45.0"/>
    <path d="M 781.549,968.958 L 769.837,965.911" data-line="4.0"  stroke-width="45.0"/>
    <path d="M 781.549,968.958 L 904.275,965.133" data-line="5.0"  stroke-width="45.0"/>
    <path d="M 769.837,965.911 L 766.272,238.932" data-line="6.0"  stroke-width="45.0"/>
    <path d="M 766.272,238.932 L 654.905,235.744" data-line="7.0"  stroke-width="45.0"/>
    <path d="M 837.003,53.774 L 654.905,235.744" data-line="8.0"  stroke-width="45.0"/>
    <path d="M 57.66334576221851,452.14757563132594 A 335.506721434004,335.506721434004 0 1,0 659.4187066511872,734.6610493204295" data-line="22.0"  stroke-width="45.0"/>
    <path d="M 338.723,428.715 L 338.733,487.309" data-line="24.0"  stroke-width="45.0"/>
    <path d="M 254.9134043772101,518.8539975323827 A 106.5992253818415,106.5992253818415 0 0,1 338.6414594490716,488.4170466886401" data-line="25.0"  stroke-width="45.0"/>
    <path d="M 255.47900001586106,519.4260000128203 A 58.93014898744975,58.93014898744975 0 0,0 249.75100001781584,527.9320000098613" data-line="26.0"  stroke-width="45.0"/>
    <path d="M 249.75678082713216,527.9351063126087 A 62.39112972223692,62.39112972223692 0 0,0 247.81108852586374,583.0503466637481" data-line="27.0"  stroke-width="45.0"/>
    <path d="M 247.843,583.036 C 250.6306093037269,588.7646876328291 254.71060683404465,594.6003536084894 259.923,599.983" data-line="28.0"  stroke-width="45.0"/>
    <path d="M 259.923,599.983 L 418.108,662.542" data-line="29.0"  stroke-width="45.0"/>
    <path d="M 418.108,662.542 L 422.079,666.742" data-line="30.0"  stroke-width="45.0"/>
    <path d="M 422.079,666.742 L 425.41,670.99" data-line="31.0"  stroke-width="45.0"/>
    <path d="M 425.41,670.99 L 428.133,675.363" data-line="32.0"  stroke-width="45.0"/>
    <path d="M 428.133,675.363 L 430.271,679.718" data-line="33.0"  stroke-width="45.0"/>
    <path d="M 430.39526643922665,679.6714582991399 A 75.41911406165787,75.41911406165787 0 0,1 424.1937538171614,745.3319272581039" data-line="34.0"  stroke-width="45.0"/>
    <path d="M 424.115,745.284 L 420.864,749.729" data-line="35.0"  stroke-width="45.0"/>
    <path d="M 421.3854921328129,750.2570058949455 A 111.76525726957487,111.76525726957487 0 0,1 338.681936420167,782.4256649561114" data-line="36.0"  stroke-width="45.0"/>
    <path d="M 338.668,838.703 L 338.645,783.416" data-line="38.0"  stroke-width="45.0"/>
    <path d="M 631.9637866303487,470.558733740943 A 337.30213393308134,337.30213393308134 0 0,0 57.535080435042005,452.06292783078334" data-line="41.0"  stroke-width="45.0"/>
  </g>
</svg>