<svg xmlns="http://www.w3.org/2000/svg" width="1024" height="1024" viewBox="-51.5 -51.5 1127.0 1127.0">
  <g fill="none" stroke="black" stroke-width="45" stroke-linecap="round" stroke-linejoin="round">
    <path d="M 703.486,752.492 C 693.546,763.854 678.828,778.27 663.177,790.825 C 647.421,801.307 632.11,809.879 611.92,819.06 C 596.279,824.719 576.081,830.394 555.361,834.432 C 534.901,836.802 514.483,837.619 494.076,836.92 C 473.636,834.705 453.147,830.927 432.917,825.544 C 417.621,820.301 402.095,813.859 386.97,806.383 C 371.827,797.532 356.45,786.758 341.413,774.108 C 331.353,764.221 318.098,748.816 307.224,733.51 C 298.165,718.163 290.693,702.954 284.461,687.582 C 278.023,667.407 273.052,646.942 269.615,626.62 Q 267.46,606.311 266.381,585.964" data-line="nan"  stroke-width="45.0"/>
    <path d="M 266.207,72.657 C 264.867,52.306 261.934,42.115 256.687,31.87 C 248.575,21.721 243.664,17.201 238.495,13.371 C 227.966,7.944 217.781,5.122 207.787,4.224 C 131.617,4.675 116.615,6.13 106.661,9.35 C 101.768,11.827 92.275,18.808 84.1,27.964 C 75.851,42.835 72.615,52.777 70.343,66.991 L 70.895,108.235" data-line="nan"  stroke-width="45.0"/>
    <path d="M 70.578,570.75 C 71.777,611.299 75.472,646.827 82.885,687.363 C 92.349,722.751 104.947,758.133 118.537,788.394 C 135.497,819.176 156.011,849.607 176.659,874.952 C 201.537,900.599 226.874,922.601 257.252,944.715 C 287.832,963.089 318.493,978.344 353.681,992.438 L 394.371,1004.767" data-line="nan"  stroke-width="45.0"/>
    <path d="M 571.974,1016.723 C 592.356,1014.005 617.881,1009.206 638.246,1004.338 C 663.412,997.003 683.908,989.813 704.492,981.379 C 724.736,971.885 750.151,957.938 765.444,948.364 C 785.963,934.107 806.415,917.801 821.398,904.605 C 836.699,889.592 850.678,874.338 863.076,859.331 C 878.022,838.988 888.118,823.527 899.827,803.404 C 910.188,783.171 919.432,762.461 927.236,742.223 C 933.935,721.867 944.251,680.985 950.112,645.352 Q 953.228,609.818 953.704,457.239" data-line="nan"  stroke-width="45.0"/>
    <path d="M 953.856,70.963 C 953.571,60.836 952.076,50.591 948.704,40.239 C 946.199,35.163 943.0,30.125 934.528,20.472 C 924.399,12.81 919.099,9.955 908.903,6.242 C 893.932,4.36 824.505,4.088 809.394,4.765 C 794.678,8.728 784.746,14.163 775.401,21.909 C 771.262,26.504 764.714,36.344 761.022,44.647 Q 758.495,55.986 757.79,91.293" data-line="nan"  stroke-width="45.0"/>
    <path d="M 266.293,423.355 L 266.207,72.657" data-line="1.0"  stroke-width="45.0"/>
    <path d="M 70.895,108.235 L 70.578,570.75" data-line="3.0"  stroke-width="45.0"/>
    <path d="M 394.371,1004.767 C 453.2651966752053,1019.7641033228305 512.9084349004503,1023.5452103409534 571.974,1016.723" data-line="5.0"  stroke-width="45.0"/>
    <path d="M 953.704,457.239 L 953.856,70.963" data-line="7.0"  stroke-width="45.0"/>
    <path d="M 266.381,585.964 L 266.293,423.355" data-line="7.0"  stroke-width="45.0"/>
    <path d="M 757.79,91.293 L 757.712,579.305" data-line="9.0"  stroke-width="45.0"/>
    <path d="M 757.2341302537311,579.3198243390468 A 281.61685817586334,281.61685817586334 0 0,1 704.0697608987871,752.9135181307377" data-line="10.0"  stroke-width="45.0"/>
  </g>
</svg>