<svg xmlns="http://www.w3.org/2000/svg" width="1024" height="1024" viewBox="-51.5 -51.5 1127.0 1127.0">
  <g fill="none" stroke="black" stroke-width="45" stroke-linecap="round" stroke-linejoin="round">
    <path d="M 1016.471,607.711 C 1011.943,617.151 1006.694,623.974 1000.003,630.107 C 990.6,635.904 981.504,639.285 971.463,641.241 L 945.11,641.555" data-line="nan"  stroke-width="45.0"/>
    <path d="M 559.324,114.647 C 561.805,102.815 568.001,90.249 575.362,81.917 L 586.886,73.352" data-line="nan"  stroke-width="45.0"/>
    <path d="M 1016.471,607.711 L 1019.964,127.136" data-line="1.0"  stroke-width="45.0"/>
    <circle cx="306.3348514340701" cy="328.1501521224588" r="177.36772205825076" data-line="4.0"  stroke-width="45.0"/>
    <path d="M 428.704,456.046 L 436.677,448.556" data-line="5.0"  stroke-width="45.0"/>
    <path d="M 687.088,295.729 L 773.252,198.779" data-line="7.0"  stroke-width="45.0"/>
    <path d="M 644.997,249.171 L 687.088,295.729" data-line="8.0"  stroke-width="45.0"/>
    <path d="M 842.108,220.361 L 939.64,220.208" data-line="11.0"  stroke-width="45.0"/>
    <path d="M 688.127,514.319 L 768.903,418.846" data-line="12.0"  stroke-width="45.0"/>
    <path d="M 647.153,468.948 L 688.127,514.319" data-line="13.0"  stroke-width="45.0"/>
    <path d="M 840.613,439.69 L 938.146,439.556" data-line="16.0"  stroke-width="45.0"/>
    <path d="M 15.579,942.599 C -8.362979738989011,889.009928017846 8.642953323854698,842.0998550500974 5.234,792.207" data-line="17.0"  stroke-width="45.0"/>
    <path d="M 15.578070600782766,942.5999307364069 A 51.21347940467552,51.21347940467552 0 0,0 29.15400700197477,952.3120502246303" data-line="18.0"  stroke-width="45.0"/>
    <path d="M 29.156,952.308 L 583.098,952.642" data-line="19.0"  stroke-width="45.0"/>
    <path d="M 583.1061380485835,952.6604586798462 A 42.13319587027309,42.13319587027309 0 0,0 603.6608270630039,933.2146852519926" data-line="20.0"  stroke-width="45.0"/>
    <path d="M 617.837727655408,641.4370085346965 A 54.5731972959338,54.5731972959338 0 0,1 560.9184794524981,570.0600381616013" data-line="21.0"  stroke-width="45.0"/>
    <path d="M 945.11,641.555 L 617.848,641.547" data-line="21.0"  stroke-width="45.0"/>
    <path d="M 559.102,569.463 L 559.324,114.647" data-line="22.0"  stroke-width="45.0"/>
    <path d="M 1020.227875611231,127.15466970069203 A 56.178014178593195,56.178014178593195 0 0,0 947.1945218757348,69.64433935195017" data-line="23.0"  stroke-width="45.0"/>
    <path d="M 946.605,67.787 L 586.886,73.352" data-line="24.0"  stroke-width="45.0"/>
    <path d="M 5.117043321198423,792.1949528740818 A 233.31888894591353,233.31888894591353 0 0,1 233.84899801528027,582.8067720127801" data-line="25.0"  stroke-width="45.0"/>
    <path d="M 233.847,582.668 L 401.903,584.47" data-line="26.0"  stroke-width="45.0"/>
    <path d="M 401.8776666316172,584.6845803073107 A 233.36654382912843,233.36654382912843 0 0,1 607.7658739798267,809.0500604592778" data-line="27.0"  stroke-width="45.0"/>
    <path d="M 607.61,809.055 L 603.63,933.199" data-line="28.0"  stroke-width="45.0"/>
  </g>
</svg>