<svg xmlns="http://www.w3.org/2000/svg" width="1024" height="1024" viewBox="-51.5 -51.5 1127.0 1127.0">
  <g fill="none" stroke="black" stroke-width="45" stroke-linecap="round" stroke-linejoin="round">
    <path d="M 557.81,996.3 C 555.48,989.61 554.2,982.24 554.19,947.49" data-line="nan"  stroke-width="45.0"/>
    <path d="M 554.34,554.32 C 555.35,546.94 557.54,540.11 561.12,533.38 C 565.74,527.45 571.5,522.15 578.45,517.68 Q 585.1,514.89 594.02,512.78" data-line="nan"  stroke-width="45.0"/>
    <path d="M 977.35,512.15 C 986.52,513.18 994.38,515.52 1002.16,519.44 C 1009.74,525.16 1015.23,531.02 1019.67,538.19 Q 1022.54,545.53 1023.84,552.91" data-line="nan"  stroke-width="45.0"/>
    <path d="M 1023.85,981.91 C 1022.36,990.55 1019.44,997.9 1015.46,1004.15 C 1009.45,1010.52 1002.05,1015.91 993.51,1020.13 Q 987.25,1022.13 977.99,1023.55" data-line="nan"  stroke-width="45.0"/>
    <path d="M 598.51,1023.71 C 585.42,1020.59 573.29,1014.25 564.38,1006.37 Q 559.15,999.54 557.81,996.3" data-line="nan"  stroke-width="45.0"/>
    <path d="M 186.13,233.4 C 162.51,235.06 141.08,240.08 131.88,243.78 C 122.58,248.99 108.9,260.12 97.67,274.08 C 92.46,283.45 88.93,292.45 85.75,305.97 L 80.11,342.41" data-line="nan"  stroke-width="45.0"/>
    <path d="M 921.1,186.84 C 920.35,168.49 918.38,159.18 914.81,149.85 C 905.9,136.2 902.02,132.04 893.27,124.85 C 879.37,117.88 865.69,114.3 852.2,113.16 L 820.24,113.7" data-line="nan"  stroke-width="45.0"/>
    <path d="M 678.52,115.52 C 477.29,114.18 463.64,113.35 449.72,110.51 C 440.43,107.19 431.03,102.45 417.37,92.51 C 352.51,26.87 343.32,18.46 334.3,11.51 C 325.04,6.25 315.69,2.81 306.65,0.85 L 293.08,0.05" data-line="nan"  stroke-width="45.0"/>
    <path d="M 123.98,0.92 L 69.13,0.32" data-line="nan"  stroke-width="45.0"/>
    <path d="M 920.64,233.3 L 186.13,233.4" data-line="0.0"  stroke-width="45.0"/>
    <path d="M 489.92,806.13 L 69.44,804.59" data-line="1.0"  stroke-width="45.0"/>
    <path d="M 921.48,447.67 L 921.1,186.84" data-line="2.0"  stroke-width="45.0"/>
    <path d="M 654.97,737.55 L 853.11,737.21" data-line="6.0"  stroke-width="45.0"/>
    <path d="M 655.13,838.18 L 757.43,838.11" data-line="7.0"  stroke-width="45.0"/>
    <path d="M 654.01,627.87 L 891.54,627.71" data-line="8.0"  stroke-width="45.0"/>
    <path d="M 80.11,342.41 L 12.42,756.34" data-line="11.0"  stroke-width="45.0"/>
    <path d="M 554.19,947.49 L 554.34,554.32" data-line="11.0"  stroke-width="45.0"/>
    <path d="M 69.4215965555357,804.3730196644676 A 60.857180232025975,60.857180232025975 0 0,1 3.4372376218513807,742.3368956689543" data-line="12.0"  stroke-width="45.0"/>
    <path d="M 594.02,512.78 L 977.35,512.15" data-line="13.0"  stroke-width="45.0"/>
    <path d="M 69.02051505428346,0.9896135169280385 A 60.06204748721816,60.06204748721816 0 0,0 1.6506901795258528,77.01828603538196" data-line="15.0"  stroke-width="45.0"/>
    <path d="M 1023.84,552.91 L 1023.85,981.91" data-line="15.0"  stroke-width="45.0"/>
    <path d="M 0.13,77.46 L 1.83,742.3" data-line="16.0"  stroke-width="45.0"/>
    <path d="M 977.99,1023.55 L 598.51,1023.71" data-line="17.0"  stroke-width="45.0"/>
    <path d="M 820.24,113.7 L 678.52,115.52" data-line="21.0"  stroke-width="45.0"/>
    <path d="M 293.08,0.05 L 123.98,0.92" data-line="23.0"  stroke-width="45.0"/>
  </g>
</svg>