<svg xmlns="http://www.w3.org/2000/svg" width="1024" height="1024" viewBox="-51.5 -51.5 1127.0 1127.0">
  <g fill="none" stroke="black" stroke-width="45" stroke-linecap="round" stroke-linejoin="round">
    <path d="M 500.59,158.17 C 500.41,210.04 499.56,217.06 496.73,224.46 C 491.22,231.28 487.75,233.89 480.28,237.11 Q 473.12,238.2 449.62,238.33" data-line="nan"  stroke-width="45.0"/>
    <path d="M 164.75,238.21 C 154.47,236.47 147.5,233.01 141.72,227.28 C 138.01,220.29 136.51,213.23 136.17,206.55 Q 136.28,177.37 137.27,155.56" data-line="nan"  stroke-width="45.0"/>
    <path d="M 406.1,122.15 C 405.29,84.85 403.87,71.4 399.0,54.68 C 394.06,44.36 389.82,37.58 381.65,27.58 C 375.05,21.22 368.19,15.82 358.05,9.69 C 347.91,5.27 337.73,2.16 327.75,0.45 C 317.78,0.0 307.73,0.55 297.13,2.68 C 289.02,5.32 278.44,10.24 270.82,14.65 C 262.66,20.8 256.03,27.13 247.94,36.96 C 242.63,45.38 238.66,53.58 233.72,70.16 Q 232.19,85.09 231.81,122.24" data-line="nan"  stroke-width="45.0"/>
    <path d="M 498.44,155.6 C 489.94,145.41 481.18,136.78 474.48,131.63 C 464.23,126.29 457.37,124.08 447.34,122.48 L 406.1,122.15" data-line="nan"  stroke-width="45.0"/>
    <path d="M 231.81,122.24 C 189.49,122.44 183.18,123.13 175.57,125.09 C 164.78,129.86 158.71,134.16 137.27,155.56" data-line="nan"  stroke-width="45.0"/>
    <path d="M 680.28,692.92 C 682.24,674.95 685.16,663.65 690.07,652.15 C 697.24,640.82 707.52,629.76 718.71,621.31 C 729.89,615.48 744.28,610.57 761.35,607.38 C 777.33,606.52 792.9,608.16 807.35,612.34 C 820.08,619.05 831.62,628.38 840.89,639.03 C 848.09,650.68 852.53,660.46 855.6,669.66 C 857.77,679.44 858.61,687.91 858.54,696.52 C 857.36,706.48 855.32,715.07 852.1,724.04 C 843.19,740.03 837.73,747.37 831.35,754.15 C 818.82,764.18 790.82,781.82 783.1,788.5 C 777.39,795.64 771.57,806.73 767.73,819.62 Q 765.77,833.81 765.14,854.15" data-line="nan"  stroke-width="45.0"/>
    <path d="M 60.84,921.59 C 47.5,920.82 33.97,917.26 27.14,913.96 C 20.5,909.4 11.56,900.31 5.14,889.97 C 1.7,880.01 0.11,866.79 0.02,843.42" data-line="nan"  stroke-width="45.0"/>
    <path d="M 0.01,213.33 C 0.81,200.18 3.28,190.37 8.21,180.26 C 15.9,170.77 25.29,163.38 35.36,158.63 Q 46.86,156.03 57.26,155.67" data-line="nan"  stroke-width="45.0"/>
    <path d="M 636.23,213.33 C 635.84,203.28 634.74,196.56 632.7,189.86 C 629.44,182.98 624.73,175.95 618.77,169.5 C 611.93,164.16 604.81,160.38 594.72,157.29 Q 584.78,155.84 500.6,155.6" data-line="nan"  stroke-width="45.0"/>
    <path d="M 489.84,921.59 L 60.84,921.59" data-line="0.0"  stroke-width="45.0"/>
    <path d="M 636.26,476.72 L 636.23,213.33" data-line="1.0"  stroke-width="45.0"/>
    <path d="M 449.62,238.33 L 164.75,238.21" data-line="5.0"  stroke-width="45.0"/>
    <circle cx="769.2114458951593" cy="767.4999131119231" r="255.541974884857" data-line="13.0"  stroke-width="45.0"/>
    <path d="M 57.26,155.67 L 137.27,155.56" data-line="13.0"  stroke-width="45.0"/>
    <path d="M 0.02,843.42 L 0.01,213.33" data-line="17.0"  stroke-width="45.0"/>
  </g>
</svg>