<svg xmlns="http://www.w3.org/2000/svg" width="1024" height="1024" viewBox="-51.5 -51.5 1127.0 1127.0">
  <g fill="none" stroke="black" stroke-width="45" stroke-linecap="round" stroke-linejoin="round">
    <path d="M 729.118,234.223 C 797.946,160.925 804.243,152.807 807.744,146.024 C 810.159,137.678 810.674,130.444 809.75,123.884 C 807.096,115.874 803.416,109.547 797.347,102.601 C 782.079,90.25 765.029,79.499 734.029,62.244 C 693.122,43.294 668.8,33.739 643.724,25.142 C 618.893,17.98 595.18,12.457 575.596,8.872 C 554.929,6.218 534.348,4.7 509.563,4.013 C 482.448,4.884 459.861,6.986 439.284,10.037 L 414.626,15.073" data-line="nan"  stroke-width="45.0"/>
    <path d="M 844.634,721.396 C 857.065,726.099 869.325,731.82 882.122,739.15 C 894.532,747.83 910.715,762.444 917.801,770.55 C 926.744,783.132 931.51,791.363 937.007,803.611 C 942.955,824.518 945.143,845.125 945.283,886.433" data-line="nan"  stroke-width="45.0"/>
    <path d="M 945.283,886.433 C 945.151,973.161 944.299,981.402 942.153,989.993 C 938.121,998.81 935.062,1003.102 927.085,1010.788 C 922.71,1013.737 913.994,1017.632 901.24,1019.767" data-line="nan"  stroke-width="45.0"/>
    <path d="M 125.499,1019.884 C 117.341,1019.356 109.056,1017.436 100.435,1013.419 C 96.291,1010.545 92.477,1007.135 86.152,999.132 C 81.041,986.951 78.82,970.342 78.727,854.884" data-line="nan"  stroke-width="45.0"/>
    <path d="M 78.727,854.884 C 80.086,830.358 82.415,817.99 86.012,805.844 C 95.465,785.47 103.65,773.09 110.378,764.822 C 118.093,756.825 130.302,746.555 150.9,733.595 Q 167.235,726.174 208.914,711.482" data-line="nan"  stroke-width="45.0"/>
    <path d="M 311.949,487.974 C 305.33,468.53 300.68,450.647 297.032,430.674 L 294.906,410.206" data-line="nan"  stroke-width="45.0"/>
    <path d="M 294.21,253.725 L 293.195,233.29" data-line="nan"  stroke-width="45.0"/>
    <path d="M 677.01,664.005 L 844.634,721.396" data-line="0.0"  stroke-width="45.0"/>
    <path d="M 512.042,893.83 L 348.408,666.035" data-line="1.0"  stroke-width="45.0"/>
    <path d="M 677.01,664.005 L 512.042,893.83" data-line="2.0"  stroke-width="45.0"/>
    <path d="M 729.118,234.223 L 725.777,439.798" data-line="8.0"  stroke-width="45.0"/>
    <path d="M 729.4954137550739,300.2279498291671 A 450.2970321818247,450.2970321818247 0 0,1 295.271241534463,299.33813485373446" data-line="9.0"  stroke-width="45.0"/>
    <path d="M 729.118,234.223 L 294.741,233.391" data-line="10.0"  stroke-width="45.0"/>
    <path d="M 293.124,231.845 C 261.4125863594766,197.0668819627456 218.97275986808125,165.37211229452393 213.308,133.813" data-line="13.0"  stroke-width="45.0"/>
    <path d="M 215.332,119.05 L 213.308,133.813" data-line="14.0"  stroke-width="45.0"/>
    <path d="M 901.24,1019.767 L 125.499,1019.884" data-line="18.0"  stroke-width="45.0"/>
    <path d="M 294.906,410.206 L 294.21,253.725" data-line="22.0"  stroke-width="45.0"/>
    <path d="M 512.092,103.924 L 512.13,81.969" data-line="23.0"  stroke-width="45.0"/>
    <path d="M 425.187,127.17 L 596.124,127.157" data-line="24.0"  stroke-width="45.0"/>
    <path d="M 512.092,103.924 L 511.855,180.706" data-line="25.0"  stroke-width="45.0"/>
    <path d="M 491.761,180.799 L 532.197,180.821" data-line="26.0"  stroke-width="45.0"/>
    <path d="M 208.914,711.482 L 348.408,666.035" data-line="30.0"  stroke-width="45.0"/>
    <path d="M 724.2782050604646,439.61698299887485 A 213.7626529115988,213.7626529115988 0 0,1 311.5608585516558,488.11751092564276" data-line="31.0"  stroke-width="45.0"/>
    <path d="M 414.626,15.073 C 350.25662080781166,34.244915623659374 269.044151398494,55.94082019214537 215.332,119.05" data-line="33.0"  stroke-width="45.0"/>
  </g>
</svg>