<svg xmlns="http://www.w3.org/2000/svg" width="1024" height="1024" viewBox="-51.5 -51.5 1127.0 1127.0">
  <g fill="none" stroke="black" stroke-width="45" stroke-linecap="round" stroke-linejoin="round">
    <path d="M 615.745,971.03 L 21.186,963.718" data-line="0"  stroke-width="45.0"/>
    <path d="M 21.186,963.718 C 18.036672176300847,961.6293170327324 17.164342247507214,960.8756653680279 14.447,958.154" data-line="1"  stroke-width="45.0"/>
    <path d="M 14.447000000487662,958.1539999995501 A 36.44129467966603,36.44129467966603 0 0,1 10.94700000059272,953.7129999996033" data-line="2"  stroke-width="45.0"/>
    <path d="M 10.94700000005308,953.7129999999654 A 31.92603804338688,31.92603804338688 0 0,1 8.362000000089136,948.8829999999617" data-line="3"  stroke-width="45.0"/>
    <path d="M 7.793182188251137,948.9729172711656 A 319.0270072591277,319.0270072591277 0 0,1 308.8221075325878,580.4445503563429" data-line="4"  stroke-width="45.0"/>
    <path d="M 909.821,931.982 L 919.776,948.256" data-line="5"  stroke-width="45.0"/>
    <path d="M 909.821,931.982 L 908.138,927.409" data-line="6"  stroke-width="45.0"/>
    <path d="M 908.138,927.409 L 907.0,923.112" data-line="7"  stroke-width="45.0"/>
    <path d="M 906.999284042767,923.1121506153396 A 46.07214237522684,46.07214237522684 0 0,1 906.6564019144429,905.9515609999353" data-line="8"  stroke-width="45.0"/>
    <path d="M 906.659,905.952 L 907.573,901.822" data-line="9"  stroke-width="45.0"/>
    <path d="M 907.573,901.822 L 909.031,897.461" data-line="10"  stroke-width="45.0"/>
    <path d="M 909.031,897.461 L 911.037,893.011" data-line="11"  stroke-width="45.0"/>
    <path d="M 911.037,893.011 L 913.688,888.548" data-line="12"  stroke-width="45.0"/>
    <path d="M 913.688,888.548 L 917.011,884.205" data-line="13"  stroke-width="45.0"/>
    <path d="M 917.011,884.205 L 920.92,880.141" data-line="14"  stroke-width="45.0"/>
    <path d="M 920.92,880.141 L 925.173,876.594" data-line="15"  stroke-width="45.0"/>
    <path d="M 925.173,876.594 L 929.535,873.742" data-line="16"  stroke-width="45.0"/>
    <path d="M 929.535,873.742 L 933.833,871.567" data-line="17"  stroke-width="45.0"/>
    <path d="M 933.833,871.567 C 939.80011785186,869.1239711237341 944.1359824634975,868.1115304032791 947.454,867.783" data-line="18"  stroke-width="45.0"/>
    <path d="M 947.4536142824535,867.778097963626 A 51.860676253274775,51.860676253274775 0 0,1 962.4266207889601,868.7777631002853" data-line="19"  stroke-width="45.0"/>
    <path d="M 962.427,868.776 L 966.817,869.984" data-line="20"  stroke-width="45.0"/>
    <path d="M 966.817,869.984 L 971.227,871.709" data-line="21"  stroke-width="45.0"/>
    <path d="M 971.227,871.709 L 975.736,874.087" data-line="22"  stroke-width="45.0"/>
    <path d="M 975.736,874.087 L 980.15,877.081" data-line="23"  stroke-width="45.0"/>
    <path d="M 980.15,877.081 L 984.398,880.686" data-line="24"  stroke-width="45.0"/>
    <path d="M 984.398,880.686 L 988.147,884.689" data-line="25"  stroke-width="45.0"/>
    <path d="M 988.147,884.689 L 991.333,888.955" data-line="26"  stroke-width="45.0"/>
    <path d="M 991.333,888.955 L 993.877,893.443" data-line="27"  stroke-width="45.0"/>
    <path d="M 993.877,893.443 L 995.845,897.959" data-line="28"  stroke-width="45.0"/>
    <path d="M 995.845,897.959 L 997.274,902.595" data-line="29"  stroke-width="45.0"/>
    <path d="M 997.274,902.595 L 998.226,907.099" data-line="30"  stroke-width="45.0"/>
    <path d="M 998.226,907.099 L 998.709,911.609" data-line="31"  stroke-width="45.0"/>
    <path d="M 998.709,911.609 L 998.763,916.013" data-line="32"  stroke-width="45.0"/>
    <path d="M 998.763,916.013 L 998.382,920.404" data-line="33"  stroke-width="45.0"/>
    <path d="M 998.382,920.404 L 997.456,924.942" data-line="34"  stroke-width="45.0"/>
    <path d="M 997.456,924.942 L 996.038,929.523" data-line="35"  stroke-width="45.0"/>
    <path d="M 996.038,929.523 L 993.996,934.248" data-line="36"  stroke-width="45.0"/>
    <path d="M 993.996,934.248 L 991.51,938.698" data-line="37"  stroke-width="45.0"/>
    <path d="M 991.51,938.698 L 988.435,943.014" data-line="38"  stroke-width="45.0"/>
    <path d="M 988.435,943.014 L 984.903,946.91" data-line="39"  stroke-width="45.0"/>
    <path d="M 984.903,946.91 L 980.812,950.511" data-line="40"  stroke-width="45.0"/>
    <path d="M 980.812,950.511 L 976.401,953.551" data-line="41"  stroke-width="45.0"/>
    <path d="M 976.401,953.551 L 971.71,956.069" data-line="42"  stroke-width="45.0"/>
    <path d="M 971.71,956.069 L 967.098,957.886" data-line="43"  stroke-width="45.0"/>
    <path d="M 967.098,957.886 L 962.553,959.129" data-line="44"  stroke-width="45.0"/>
    <path d="M 962.5529999937236,959.1289999689908 A 50.863379091597686,50.863379091597686 0 0,1 953.8499999991412,960.120999968529" data-line="45"  stroke-width="45.0"/>
    <path d="M 953.8499999994133,960.120999971696 A 51.21671646999865,51.21671646999865 0 0,1 945.0630000042873,959.5459999719016" data-line="46"  stroke-width="45.0"/>
    <path d="M 945.063,959.546 L 940.606,958.605" data-line="47"  stroke-width="45.0"/>
    <path d="M 940.606,958.605 L 936.14,957.17" data-line="48"  stroke-width="45.0"/>
    <path d="M 936.14,957.17 L 919.776,948.256" data-line="49"  stroke-width="45.0"/>
    <path d="M 735.3262531854998,944.0817585278966 A 47.342059153264586,47.342059153264586 0 0,1 769.2593723787985,866.3164090287563" data-line="52"  stroke-width="45.0"/>
    <path d="M 735.3285200819645,944.0807514407372 A 46.960497332752574,46.960497332752574 0 0,0 807.7573639435835,942.3158552118176" data-line="53"  stroke-width="45.0"/>
    <path d="M 807.6281290525286,942.2135999986626 A 46.59099803687815,46.59099803687815 0 0,0 794.6724857327105,873.1176644300416" data-line="54"  stroke-width="45.0"/>
    <path d="M 794.694,873.081 L 770.45,864.426" data-line="55"  stroke-width="45.0"/>
    <path d="M 1020.0,604.039 L 711.902,605.237" data-line="56"  stroke-width="45.0"/>
    <path d="M 1020.0,604.039 L 978.105,806.827" data-line="57"  stroke-width="45.0"/>
    <path d="M 978.105,806.827 L 756.997,806.856" data-line="58"  stroke-width="45.0"/>
    <path d="M 769.002,863.983 L 693.837,527.643" data-line="59"  stroke-width="45.0"/>
    <path d="M 644.94,527.409 L 693.837,527.643" data-line="60"  stroke-width="45.0"/>
    <circle cx="375.9486693487375" cy="279.6584816239621" r="226.3784788963052" data-line="68"  stroke-width="45.0"/>
    <path d="M 308.825,580.51 L 430.945,580.647" data-line="69"  stroke-width="45.0"/>
    <path d="M 430.96103932480264,580.4172403638845 A 339.4444276073938,339.4444276073938 0 0,1 684.7338061465497,723.422273676837" data-line="70"  stroke-width="45.0"/>
  </g>
</svg>