<svg xmlns="http://www.w3.org/2000/svg" width="1024" height="1024" viewBox="-51.5 -51.5 1127.0 1127.0">
  <g fill="none" stroke="black" stroke-width="45" stroke-linecap="round" stroke-linejoin="round">
    <path d="M 127.96,932.592 C 112.108,931.424 101.398,929.563 92.361,926.544 C 80.617,920.878 70.436,913.578 62.777,906.291 C 57.111,899.1 50.908,888.317 47.105,878.934 C 44.995,870.168 44.224,861.221 44.196,843.346 Q 46.507,806.628 51.522,772.801" data-line="nan"  stroke-width="45.0"/>
    <path d="M 51.522,772.801 C 56.047,752.461 61.055,734.825 68.273,714.4 C 75.787,697.143 84.935,679.43 94.988,662.645 C 106.644,645.702 120.596,628.057 135.623,611.476 C 149.801,597.838 165.921,584.155 182.887,571.558 C 201.324,559.663 219.123,549.811 238.885,540.572 C 254.383,534.778 285.632,525.862 297.047,524.433 C 304.137,524.791 312.937,526.946 357.075,544.796 C 388.384,553.748 406.35,557.1 428.729,559.897 C 446.547,561.016 464.448,561.082 491.199,558.929 C 522.542,553.174 545.153,546.76 589.564,529.84 C 602.831,527.204 611.661,527.202 633.919,531.513 C 656.061,539.38 678.646,549.958 702.264,564.022" data-line="nan"  stroke-width="45.0"/>
    <circle cx="451.4808323506337" cy="233.60219128011613" r="229.87646449177993" data-line="0.0"  stroke-width="45.0"/>
    <path d="M 979.846,709.309 L 647.706,709.568" data-line="3.0"  stroke-width="45.0"/>
    <path d="M 937.567,896.015 L 979.846,709.309" data-line="4.0"  stroke-width="45.0"/>
    <path d="M 937.567,896.015 L 692.433,895.325" data-line="5.0"  stroke-width="45.0"/>
    <path d="M 692.433,895.325 L 652.583,729.256" data-line="6.0"  stroke-width="45.0"/>
    <path d="M 652.583,729.256 L 634.06,654.401" data-line="7.0"  stroke-width="45.0"/>
    <path d="M 584.972,654.503 L 634.06,654.401" data-line="8.0"  stroke-width="45.0"/>
    <path d="M 574.7,933.571 L 127.96,932.592" data-line="11.0"  stroke-width="45.0"/>
    <path d="M 746.27205984793,976.2482341469497 A 34.92873488953652,34.92873488953652 0 1,0 747.3742204835186,983.5157022847737" data-line="14.0"  stroke-width="45.0"/>
    <path d="M 746.422,976.209 L 748.653,983.458" data-line="15.0"  stroke-width="45.0"/>
    <circle cx="902.9592165668364" cy="985.093601234518" r="34.994235653185505" data-line="17.0"  stroke-width="45.0"/>
    <path d="M 881.547,1012.429 L 885.721,1016.029" data-line="18.0"  stroke-width="45.0"/>
  </g>
</svg>