<svg xmlns="http://www.w3.org/2000/svg" width="1024" height="1024" viewBox="-51.5 -51.5 1127.0 1127.0">
  <g fill="none" stroke="black" stroke-width="45" stroke-linecap="round" stroke-linejoin="round">
    <path d="M 656.466,474.654 C 646.142,484.258 633.108,494.801 619.807,503.91 C 606.898,511.409 580.769,523.082 567.732,527.358 C 550.474,531.583 533.147,534.221 520.146,535.113 C 502.884,535.096 489.884,534.157 476.946,532.351 C 459.697,528.589 442.535,523.216 429.479,517.935 C 416.454,511.555 403.406,503.992 390.445,495.156 C 377.68,484.976 365.224,473.481 353.288,460.624 C 342.843,447.427 333.984,434.379 324.251,417.294 C 317.991,404.14 311.148,386.721 307.053,373.692 C 300.614,343.802 298.844,326.584 298.336,309.386" data-line="nan"  stroke-width="45.0"/>
    <path d="M 298.953,192.679 C 300.669,171.066 303.516,153.843 309.553,132.57 C 316.422,115.526 325.521,98.286 337.307,81.007 C 348.399,68.1 361.357,55.731 377.849,42.986 C 395.324,32.122 412.547,23.607 433.944,15.509 C 455.507,9.9 483.712,5.343 501.413,4.151 C 523.056,4.097 544.607,5.781 566.13,9.341 C 587.631,14.946 605.045,21.245 622.27,29.163 C 639.932,39.562 657.271,52.508 670.06,64.266 C 681.764,77.188 693.839,94.065 703.403,111.525 C 710.574,128.846 715.863,146.251 720.173,168.003 Q 722.006,185.304 722.681,206.942" data-line="nan"  stroke-width="45.0"/>
    <path d="M 974.6,785.238 C 974.312,772.252 972.989,759.187 970.625,746.224 C 967.503,734.779 963.502,724.27 959.022,715.667 C 953.338,706.449 944.495,694.48 930.034,679.479 C 912.59,666.247 892.515,655.224 852.05,636.958" data-line="nan"  stroke-width="45.0"/>
    <path d="M 531.942,673.374 L 490.253,673.617" data-line="2.0"  stroke-width="45.0"/>
    <path d="M 569.506,836.042 L 531.942,673.374" data-line="3.0"  stroke-width="45.0"/>
    <path d="M 580.758,813.281 L 510.601,1019.965" data-line="4.0"  stroke-width="45.0"/>
    <path d="M 510.601,1019.965 L 441.661,808.267" data-line="5.0"  stroke-width="45.0"/>
    <path d="M 490.253,673.617 L 453.014,836.585" data-line="6.0"  stroke-width="45.0"/>
    <path d="M 561.981,604.761 L 459.316,604.716" data-line="7.0"  stroke-width="45.0"/>
    <path d="M 561.981,604.761 L 531.942,673.374" data-line="8.0"  stroke-width="45.0"/>
    <path d="M 490.253,673.617 L 459.316,604.716" data-line="9.0"  stroke-width="45.0"/>
    <path d="M 354.064,551.952 L 131.969,654.095" data-line="10.0"  stroke-width="45.0"/>
    <path d="M 264.455,694.168 L 288.135,586.046" data-line="11.0"  stroke-width="45.0"/>
    <path d="M 264.455,694.168 L 309.953,739.733" data-line="12.0"  stroke-width="45.0"/>
    <path d="M 309.953,739.733 L 281.841,781.684" data-line="13.0"  stroke-width="45.0"/>
    <path d="M 454.66,1019.971 L 281.841,781.684" data-line="14.0"  stroke-width="45.0"/>
    <path d="M 973.278,1019.334 L 50.768,1018.705" data-line="15.0"  stroke-width="45.0"/>
    <path d="M 973.278,1019.334 L 974.6,785.238" data-line="16.0"  stroke-width="45.0"/>
    <path d="M 738.444,781.576 L 568.782,1019.946" data-line="17.0"  stroke-width="45.0"/>
    <path d="M 738.444,781.576 L 713.075,739.534" data-line="18.0"  stroke-width="45.0"/>
    <path d="M 761.613,694.576 L 713.075,739.534" data-line="19.0"  stroke-width="45.0"/>
    <path d="M 761.613,694.576 L 735.201,585.538" data-line="20.0"  stroke-width="45.0"/>
    <path d="M 446.003,832.1 L 354.064,551.952" data-line="21.0"  stroke-width="45.0"/>
    <path d="M 667.872,552.755 L 575.134,835.995" data-line="23.0"  stroke-width="45.0"/>
    <path d="M 298.336,309.386 L 298.953,192.679" data-line="24.0"  stroke-width="45.0"/>
    <path d="M 722.681,206.942 L 722.033,328.224" data-line="26.0"  stroke-width="45.0"/>
    <path d="M 722.0159316396753,328.22277432051766 A 235.09756550529056,235.09756550529056 0 0,1 656.5756694251527,474.75998643675644" data-line="27.0"  stroke-width="45.0"/>
    <path d="M 132.02973548006514,654.2426485900548 A 133.62123341723358,133.62123341723358 0 0,0 50.037958973917995,792.3883771922428" data-line="28.0"  stroke-width="45.0"/>
    <path d="M 49.458,792.452 L 50.768,1018.705" data-line="29.0"  stroke-width="45.0"/>
    <path d="M 852.05,636.958 L 667.872,552.755" data-line="31.0"  stroke-width="45.0"/>
  </g>
</svg>